<svg width="17" height="17" viewBox="0 0 17 17" fill="none" xmlns="http://www.w3.org/2000/svg">
<g clip-path="url(#clip0_299_857)">
<path d="M17 8.5C17 3.80561 13.1944 0 8.5 0C3.80561 0 0 3.80554 0 8.5C0 12.7426 3.10834 16.2591 7.17188 16.8967V10.957H5.01367V8.5H7.17188V6.62734C7.17188 4.49703 8.4409 3.32031 10.3824 3.32031C11.3124 3.32031 12.2852 3.48633 12.2852 3.48633V5.57813H11.2134C10.1574 5.57813 9.82812 6.23336 9.82812 6.90559V8.5H12.1855L11.8087 10.957H9.82812V16.8967C13.8917 16.2591 17 12.7426 17 8.5Z" fill="#1877F2"/>
<path d="M11.8087 10.957L12.1855 8.5H9.82812V6.90559C9.82812 6.23329 10.1574 5.57813 11.2134 5.57813H12.2852V3.48633C12.2852 3.48633 11.3124 3.32031 10.3824 3.32031C8.4409 3.32031 7.17187 4.49703 7.17187 6.62734V8.5H5.01367V10.957H7.17187V16.8967C7.61123 16.9656 8.05528 17.0001 8.5 17C8.94472 17.0001 9.38877 16.9656 9.82812 16.8967V10.957H11.8087Z" fill="white"/>
</g>
<defs>
<clipPath id="clip0_299_857">
<rect width="17" height="17" fill="white"/>
</clipPath>
</defs>
</svg>
