<svg width="38" height="38" viewBox="0 0 38 38" fill="none" xmlns="http://www.w3.org/2000/svg">
<path d="M0 0H38V38H0V0Z" fill="#191919"/>
<path d="M19 4.52393C10.8571 4.58365 9.04391 10.2706 12.2623 14.6496C11.7197 15.1392 11.3849 15.84 12.2143 16.5726C13.5714 17.7715 14.9286 17.7715 15.5946 19.0019H22.4054C23.0714 17.7715 24.4286 17.7715 25.7857 16.5726C26.6151 15.84 26.2803 15.1392 25.7377 14.6496C28.9561 10.2706 27.1429 4.58365 19 4.52393ZM15.4251 12.0957C15.4612 12.0954 15.4982 12.0962 15.5359 12.0979C17.9452 12.2059 19 16.5726 14.6173 15.9265C13.7341 15.7963 13.1452 12.1078 15.4251 12.0957ZM22.5749 12.0957C24.8549 12.1078 24.2659 15.7963 23.3827 15.9265C19 16.5726 20.0548 12.2059 22.4641 12.0977C22.5018 12.0961 22.5387 12.0954 22.5749 12.0955V12.0957ZM0 12.9759C0.628187 19.6138 5.46886 26.1297 13.285 30.7194C14.8083 30.1761 16.3188 29.5713 17.562 28.9303C12.5751 26.1441 6.18679 21.3282 0 12.9759ZM38 12.9759C27.7536 26.8086 16.9527 30.9442 12.8851 32.2181C13.1545 32.6207 13.3937 33.0408 13.6239 33.4493C13.9529 34.033 14.267 34.5921 14.5726 35.0218C16.0783 34.5872 17.5563 34.0809 19 33.5051L19.0142 33.5108C19.2879 33.3961 19.5608 33.2799 19.8329 33.1623C30.4923 28.6563 37.2498 20.9029 38 12.9759ZM19 15.0534L20.7027 18.0619L19 17.1217L17.2973 18.0619L19 15.0534ZM13.4354 19.3327L14.7722 23.1574C14.7722 23.1574 17.4244 25.0247 19 25.0247C20.5756 25.0247 23.2278 23.1574 23.2278 23.1574L24.5646 19.3328L22.2672 20.7742L21.5832 21.9917C21.5832 21.9917 19.9627 23.1326 19 23.1326C18.0373 23.1326 16.4168 21.9917 16.4168 21.9917L15.7328 20.7742L13.4354 19.3327ZM8.34745 30.7954C8.28103 30.7939 8.21394 30.7946 8.146 30.7974L8.2186 32.1446C8.75807 32.1219 9.13586 32.3256 9.58508 32.792C10.0345 33.2582 10.4604 33.9689 10.8778 34.7094C11.2949 35.4498 11.7011 36.217 12.2452 36.8412C12.7894 37.4651 13.6195 37.9986 14.6176 37.882L14.4174 36.5449C14.0702 36.5854 13.8423 36.4625 13.4548 36.018C13.0672 35.5735 12.6681 34.8596 12.2446 34.1081C11.8211 33.3566 11.3712 32.5642 10.748 31.9176C10.1637 31.3114 9.34359 30.8171 8.34745 30.7954ZM29.6526 30.7954C28.6563 30.8171 27.8363 31.3113 27.2521 31.9176C26.6288 32.5642 26.1789 33.3566 25.7554 34.1081C25.3319 34.8597 24.9328 35.5735 24.5452 36.018C24.1576 36.4625 23.9298 36.5854 23.5825 36.5449L23.3824 37.882C24.3805 37.9986 25.2106 37.4651 25.7548 36.8412C26.2989 36.217 26.7051 35.4498 27.1223 34.7094C27.5396 33.9689 27.9655 33.2582 28.4148 32.7919C28.8641 32.3256 29.2418 32.1219 29.7814 32.1446L29.854 30.7974C29.7869 30.7946 29.7197 30.7939 29.6526 30.7954ZM24.9087 32.1522C23.7237 32.9017 22.353 33.5699 20.8861 34.2112C21.7237 34.504 22.5712 34.7744 23.4274 35.0218C23.733 34.5921 24.0471 34.033 24.3761 33.4493C24.6063 33.0407 24.8455 32.6207 25.1149 32.2181C25.0495 32.1976 24.9775 32.1741 24.9087 32.1522H24.9087ZM8.63923 33.9034L6.29222 34.6791L6.96265 37.0597L10.0522 36.1825C9.93191 35.9717 9.81384 35.7592 9.69534 35.5488C9.35199 34.9396 9.00244 34.3528 8.63923 33.9034ZM29.3608 33.9034C28.9976 34.3528 28.648 34.9396 28.3047 35.5488C28.1861 35.7592 28.0681 35.9717 27.9478 36.1825L31.0373 37.0597L31.7078 34.6791L29.3608 33.9034ZM3.92477 34.8137C3.88726 34.8145 3.84985 34.8175 3.81281 34.8227C3.77766 34.8277 3.7431 34.8356 3.70958 34.8462C2.7304 35.161 1.58014 36.198 1.87337 37.0812C2.13377 37.8659 3.54223 38.0822 4.45974 37.9741C4.78444 37.9359 5.17351 37.6923 5.49745 37.4432L4.80836 34.9968C4.53371 34.9005 4.19646 34.8074 3.92477 34.8137ZM34.0752 34.8137C33.8035 34.8074 33.4663 34.9005 33.1917 34.9968L32.5026 37.4432C32.8265 37.6923 33.2156 37.9359 33.5403 37.9741C34.4578 38.0822 35.8662 37.8659 36.1266 37.0812C36.4199 36.198 35.2696 35.161 34.2904 34.8462C34.2569 34.8356 34.2223 34.8278 34.1872 34.8228C34.1502 34.8175 34.1127 34.8145 34.0752 34.8137Z" fill="#F4A800"/>
</svg>
