<svg width="27" height="33" viewBox="0 0 27 33" fill="none" xmlns="http://www.w3.org/2000/svg">
<g filter="url(#filter0_d_192_4039)">
<path d="M13.4525 15.2C13.785 15.2 14.0662 15.085 14.2961 14.8551C14.526 14.6252 14.6406 14.3444 14.64 14.0125C14.64 13.68 14.5254 13.3988 14.2961 13.1689C14.0668 12.939 13.7856 12.8244 13.4525 12.825C13.12 12.825 12.8391 12.9399 12.6098 13.1698C12.3806 13.3997 12.2656 13.6806 12.265 14.0125C12.265 14.345 12.3799 14.6262 12.6098 14.8561C12.8397 15.086 13.1206 15.2006 13.4525 15.2ZM12.5975 11.5425H14.355C14.355 11.02 14.4145 10.6083 14.5336 10.3075C14.6527 10.0067 14.989 9.595 15.5425 9.0725C15.9542 8.66083 16.2787 8.2688 16.5162 7.8964C16.7537 7.524 16.8725 7.07687 16.8725 6.555C16.8725 5.66833 16.5479 4.9875 15.8987 4.5125C15.2496 4.0375 14.4817 3.8 13.595 3.8C12.6925 3.8 11.96 4.0375 11.3976 4.5125C10.8352 4.9875 10.4435 5.5575 10.2225 6.2225L11.79 6.84C11.8692 6.555 12.0474 6.24625 12.3248 5.91375C12.6022 5.58125 13.0256 5.415 13.595 5.415C14.1017 5.415 14.4817 5.5537 14.735 5.8311C14.9883 6.1085 15.115 6.41313 15.115 6.745C15.115 7.06167 15.02 7.3587 14.83 7.6361C14.64 7.9135 14.4025 8.17063 14.1175 8.4075C13.4208 9.025 12.9933 9.49208 12.835 9.80875C12.6767 10.1254 12.5975 10.7033 12.5975 11.5425ZM13.5 19C12.1858 19 10.9508 18.7505 9.795 18.2514C8.63917 17.7523 7.63375 17.0756 6.77875 16.2212C5.92375 15.3663 5.24703 14.3608 4.7486 13.205C4.25017 12.0492 4.00063 10.8142 4 9.5C4 8.18583 4.24953 6.95083 4.7486 5.795C5.24767 4.63917 5.92438 3.63375 6.77875 2.77875C7.63375 1.92375 8.63917 1.24703 9.795 0.7486C10.9508 0.250167 12.1858 0.000633333 13.5 0C14.8142 0 16.0492 0.249533 17.205 0.7486C18.3608 1.24767 19.3663 1.92438 20.2212 2.77875C21.0763 3.63375 21.7533 4.63917 22.2523 5.795C22.7514 6.95083 23.0006 8.18583 23 9.5C23 10.8142 22.7505 12.0492 22.2514 13.205C21.7523 14.3608 21.0756 15.3663 20.2212 16.2212C19.3663 17.0763 18.3608 17.7533 17.205 18.2523C16.0492 18.7514 14.8142 19.0006 13.5 19Z" fill="#FAFAFB"/>
</g>
<defs>
<filter id="filter0_d_192_4039" x="0" y="0" width="27" height="33" filterUnits="userSpaceOnUse" color-interpolation-filters="sRGB">
<feFlood flood-opacity="0" result="BackgroundImageFix"/>
<feColorMatrix in="SourceAlpha" type="matrix" values="0 0 0 0 0 0 0 0 0 0 0 0 0 0 0 0 0 0 127 0" result="hardAlpha"/>
<feOffset dy="10"/>
<feGaussianBlur stdDeviation="2"/>
<feComposite in2="hardAlpha" operator="out"/>
<feColorMatrix type="matrix" values="0 0 0 0 0 0 0 0 0 0 0 0 0 0 0 0 0 0 0.25 0"/>
<feBlend mode="normal" in2="BackgroundImageFix" result="effect1_dropShadow_192_4039"/>
<feBlend mode="normal" in="SourceGraphic" in2="effect1_dropShadow_192_4039" result="shape"/>
</filter>
</defs>
</svg>
