<svg width="38" height="40" viewBox="0 0 38 40" fill="none" xmlns="http://www.w3.org/2000/svg">
<path d="M18.8129 36.6667C16.6554 36.6667 14.6279 36.229 12.7304 35.3534C10.8329 34.4779 9.18229 33.2906 7.77865 31.7917C6.375 30.2917 5.26404 28.5279 4.44577 26.5001C3.62749 24.4723 3.21784 22.3056 3.2168 20.0001C3.2168 17.9167 3.5937 15.8751 4.34751 13.8751C5.10132 11.8751 6.15406 10.0901 7.50571 8.52008C8.85737 6.95119 10.482 5.6873 12.3795 4.72842C14.277 3.76953 16.3565 3.29064 18.6179 3.29175C19.1638 3.29175 19.7226 3.31953 20.2945 3.37508C20.8663 3.43064 21.4512 3.52786 22.049 3.66675C21.8151 4.91675 21.8931 6.0973 22.283 7.20842C22.6729 8.31953 23.2577 9.24286 24.0375 9.97842C24.8173 10.7151 25.7469 11.2223 26.8261 11.5001C27.9054 11.7779 29.0163 11.7084 30.159 11.2917C29.4832 12.9306 29.5809 14.5001 30.4522 16.0001C31.3235 17.5001 32.6164 18.2779 34.3309 18.3334C34.3569 18.639 34.3767 18.9234 34.3902 19.1867C34.4037 19.4501 34.41 19.7351 34.4089 20.0417C34.4089 22.3195 33.9993 24.4651 33.18 26.4784C32.3606 28.4917 31.2497 30.2556 29.8471 31.7701C28.4434 33.2845 26.7928 34.479 24.8953 35.3534C22.9978 36.2279 20.9703 36.6656 18.8129 36.6667ZM16.4735 16.6667C17.1233 16.6667 17.6759 16.4234 18.1313 15.9367C18.5867 15.4501 18.8139 14.8601 18.8129 14.1667C18.8129 13.4723 18.5852 12.8817 18.1298 12.3951C17.6743 11.9084 17.1222 11.6656 16.4735 11.6667C15.8236 11.6667 15.271 11.9101 14.8156 12.3967C14.3602 12.8834 14.133 13.4734 14.134 14.1667C14.134 14.8612 14.3617 15.4517 14.8171 15.9384C15.2726 16.4251 15.8247 16.6679 16.4735 16.6667ZM13.3542 25.0001C14.0041 25.0001 14.5567 24.7567 15.0121 24.2701C15.4675 23.7834 15.6947 23.1934 15.6936 22.5001C15.6936 21.8056 15.4659 21.2151 15.0105 20.7284C14.5551 20.2417 14.003 19.999 13.3542 20.0001C12.7044 20.0001 12.1518 20.2434 11.6964 20.7301C11.241 21.2167 11.0138 21.8067 11.0148 22.5001C11.0148 23.1945 11.2425 23.7851 11.6979 24.2717C12.1533 24.7584 12.7054 25.0012 13.3542 25.0001ZM23.4917 26.6667C23.9336 26.6667 24.3042 26.5067 24.6037 26.1867C24.9031 25.8667 25.0523 25.4712 25.0513 25.0001C25.0513 24.5279 24.9016 24.1317 24.6021 23.8117C24.3027 23.4917 23.9325 23.3323 23.4917 23.3334C23.0498 23.3334 22.6791 23.4934 22.3797 23.8134C22.0802 24.1334 21.931 24.529 21.9321 25.0001C21.9321 25.4723 22.0818 25.8684 22.3812 26.1884C22.6807 26.5084 23.0508 26.6679 23.4917 26.6667ZM18.8129 33.3334C21.9841 33.3334 24.7981 32.1667 27.255 29.8334C29.7119 27.5001 31.0568 24.5279 31.2897 20.9167C29.99 20.3056 28.9695 19.4723 28.2282 18.4167C27.4869 17.3612 26.9868 16.1806 26.7279 14.8751C24.7264 14.5695 23.0108 13.6529 21.5812 12.1251C20.1515 10.5973 19.2677 8.76397 18.9298 6.62508C16.8504 6.56953 15.0241 6.9723 13.4509 7.83342C11.8778 8.69453 10.5657 9.79897 9.51449 11.1467C8.46019 12.4934 7.66635 13.9584 7.13297 15.5417C6.59958 17.1251 6.33393 18.6112 6.33601 20.0001C6.33601 23.6945 7.55094 26.8406 9.98081 29.4384C12.4107 32.0362 15.3547 33.3345 18.8129 33.3334Z" fill="#D9D9D9"/>
</svg>
