<svg width="38" height="41" viewBox="0 0 38 41" fill="none" xmlns="http://www.w3.org/2000/svg">
<path d="M10.1061 15.0788L4.16694 20.5L10.1061 25.9213C10.2275 26.0278 10.3284 26.1597 10.4027 26.3094C10.477 26.4591 10.5233 26.6235 10.5389 26.793C10.5545 26.9625 10.5391 27.1337 10.4936 27.2966C10.4481 27.4595 10.3733 27.6108 10.2738 27.7417C10.1742 27.8726 10.0518 27.9804 9.91374 28.0589C9.77568 28.1373 9.62472 28.1848 9.46969 28.1986C9.31466 28.2124 9.15868 28.1922 9.01088 28.1391C8.86307 28.0861 8.72641 28.0013 8.60889 27.8897L1.59066 21.4834C1.45897 21.3632 1.35302 21.2127 1.28032 21.0426C1.20761 20.8725 1.16992 20.687 1.16992 20.4992C1.16992 20.3114 1.20761 20.126 1.28032 19.9559C1.35302 19.7858 1.45897 19.6353 1.59066 19.5151L8.60889 13.1088C8.84738 12.8914 9.15497 12.7866 9.46399 12.8175C9.77302 12.8484 10.0582 13.0126 10.2567 13.2738C10.4553 13.535 10.5509 13.8719 10.5227 14.2104C10.4944 14.5489 10.3446 14.8613 10.1061 15.0788ZM35.8396 19.5151L28.8214 13.1088C28.7033 13.0011 28.567 12.92 28.4203 12.87C28.2736 12.82 28.1193 12.8022 27.9663 12.8175C27.8133 12.8328 27.6645 12.881 27.5285 12.9593C27.3925 13.0376 27.2719 13.1444 27.1736 13.2738C26.975 13.535 26.8794 13.8719 26.9076 14.2104C26.9358 14.5489 27.0857 14.8613 27.3242 15.0788L33.2633 20.5L27.3242 25.9213C27.2027 26.0278 27.1019 26.1597 27.0276 26.3094C26.9533 26.4591 26.907 26.6235 26.8914 26.793C26.8758 26.9625 26.8912 27.1337 26.9367 27.2966C26.9822 27.4595 27.057 27.6108 27.1565 27.7417C27.2561 27.8726 27.3785 27.9804 27.5165 28.0589C27.6546 28.1373 27.8056 28.1848 27.9606 28.1986C28.1156 28.2124 28.2716 28.1922 28.4194 28.1391C28.5672 28.0861 28.7039 28.0013 28.8214 27.8897L35.8396 21.4834C35.9713 21.3632 36.0773 21.2127 36.15 21.0426C36.2227 20.8725 36.2604 20.687 36.2604 20.4992C36.2604 20.3114 36.2227 20.126 36.15 19.9559C36.0773 19.7858 35.9713 19.6353 35.8396 19.5151ZM23.7931 5.20192C23.6487 5.1445 23.4954 5.11879 23.342 5.12627C23.1885 5.13374 23.0379 5.17426 22.8987 5.24549C22.7596 5.31673 22.6346 5.41729 22.5309 5.54145C22.4272 5.6656 22.3469 5.8109 22.2944 5.96907L12.9368 34.1566C12.8842 34.3148 12.8605 34.4829 12.8672 34.6512C12.8739 34.8194 12.9109 34.9846 12.9759 35.1372C13.041 35.2899 13.1329 35.4269 13.2463 35.5406C13.3598 35.6543 13.4926 35.7424 13.6372 35.7998C13.7653 35.8497 13.9003 35.8751 14.0363 35.875C14.2765 35.875 14.5109 35.794 14.7076 35.643C14.9044 35.492 15.0539 35.2783 15.1358 35.031L24.4935 6.84352C24.5459 6.68536 24.5694 6.51744 24.5625 6.34934C24.5557 6.18125 24.5187 6.01627 24.4537 5.86383C24.3887 5.71139 24.2969 5.57448 24.1835 5.46091C24.0702 5.34734 23.9375 5.25933 23.7931 5.20192Z" fill="#D9D9D9"/>
</svg>
