<svg width="42" height="36" viewBox="0 0 42 36" fill="none" xmlns="http://www.w3.org/2000/svg">
<path d="M20.7955 27C21.4037 27 21.9181 26.8185 22.3387 26.4555C22.7593 26.0925 22.969 25.649 22.9678 25.125C22.9678 24.6 22.7581 24.156 22.3387 23.793C21.9193 23.43 21.4049 23.249 20.7955 23.25C20.1872 23.25 19.6734 23.4315 19.254 23.7945C18.8346 24.1575 18.6243 24.601 18.6232 25.125C18.6232 25.65 18.8335 26.094 19.254 26.457C19.6746 26.82 20.1884 27.001 20.7955 27ZM19.2314 21.225H22.4464C22.4464 20.4 22.5553 19.75 22.7732 19.275C22.991 18.8 23.6062 18.15 24.6187 17.325C25.3718 16.675 25.9656 16.056 26.4 15.468C26.8345 14.88 27.0517 14.174 27.0517 13.35C27.0517 11.95 26.458 10.875 25.2704 10.125C24.0829 9.375 22.6782 9 21.0562 9C19.4052 9 18.0653 9.375 17.0365 10.125C16.0077 10.875 15.2911 11.775 14.8868 12.825L17.7543 13.8C17.8991 13.35 18.2252 12.8625 18.7327 12.3375C19.2401 11.8125 20.0146 11.55 21.0562 11.55C21.983 11.55 22.6782 11.769 23.1416 12.207C23.605 12.645 23.8367 13.126 23.8367 13.65C23.8367 14.15 23.6629 14.619 23.3154 15.057C22.9678 15.495 22.5333 15.901 22.012 16.275C20.7376 17.25 19.9555 17.9875 19.6659 18.4875C19.3762 18.9875 19.2314 19.9 19.2314 21.225ZM20.8824 33C18.4784 33 16.2192 32.606 14.1048 31.818C11.9904 31.03 10.1512 29.9615 8.58711 28.6125C7.02305 27.2625 5.78512 25.675 4.87333 23.85C3.96154 22.025 3.50506 20.075 3.50391 18C3.50391 15.925 3.96038 13.975 4.87333 12.15C5.78628 10.325 7.02421 8.7375 8.58711 7.3875C10.1512 6.0375 11.9904 4.969 14.1048 4.182C16.2192 3.395 18.4784 3.001 20.8824 3C23.2864 3 25.5456 3.394 27.66 4.182C29.7744 4.97 31.6136 6.0385 33.1776 7.3875C34.7417 8.7375 35.9802 10.325 36.8932 12.15C37.8061 13.975 38.262 15.925 38.2608 18C38.2608 20.075 37.8044 22.025 36.8914 23.85C35.9785 25.675 34.7405 27.2625 33.1776 28.6125C31.6136 29.9625 29.7744 31.0315 27.66 31.8195C25.5456 32.6075 23.2864 33.001 20.8824 33Z" fill="#D9D9D9"/>
</svg>
