<svg width="33" height="35" viewBox="0 0 33 35" fill="none" xmlns="http://www.w3.org/2000/svg">
<path d="M8.47977 32.0833C7.74452 32.0833 7.11489 31.7974 6.59086 31.2258C6.06683 30.6541 5.80526 29.9677 5.80615 29.1666V14.5833C5.80615 13.7812 6.06817 13.0943 6.5922 12.5226C7.11622 11.951 7.74541 11.6656 8.47977 11.6666H9.81657V8.74992C9.81657 6.73256 10.4685 5.0127 11.7723 3.59034C13.0761 2.16798 14.6522 1.45728 16.5006 1.45825C18.3498 1.45825 19.9264 2.16943 21.2302 3.59179C22.534 5.01416 23.1855 6.73353 23.1846 8.74992V11.6666H24.5214C25.2567 11.6666 25.8863 11.9524 26.4103 12.5241C26.9344 13.0958 27.1959 13.7821 27.195 14.5833V29.1666C27.195 29.9687 26.933 30.6555 26.409 31.2272C25.885 31.7989 25.2558 32.0842 24.5214 32.0833H8.47977ZM8.47977 29.1666H24.5214V14.5833H8.47977V29.1666ZM16.5006 24.7916C17.2358 24.7916 17.8655 24.5058 18.3895 23.9341C18.9135 23.3624 19.1751 22.676 19.1742 21.8749C19.1742 21.0728 18.9122 20.386 18.3882 19.8143C17.8641 19.2426 17.235 18.9573 16.5006 18.9583C15.7654 18.9583 15.1357 19.2441 14.6117 19.8158C14.0877 20.3874 13.8261 21.0738 13.827 21.8749C13.827 22.677 14.089 23.3639 14.613 23.9355C15.1371 24.5072 15.7662 24.7926 16.5006 24.7916ZM12.4902 11.6666H20.511V8.74992C20.511 7.53464 20.1211 6.50166 19.3413 5.65096C18.5615 4.80027 17.6146 4.37492 16.5006 4.37492C15.3866 4.37492 14.4397 4.80027 13.6599 5.65096C12.8801 6.50166 12.4902 7.53464 12.4902 8.74992V11.6666Z" fill="#D9D9D9"/>
</svg>
