<svg width="51" height="51" viewBox="0 0 51 51" fill="none" xmlns="http://www.w3.org/2000/svg">
<path d="M14.8641 0.106185L35.8635 0.259971C43.8633 0.318556 50.3156 6.86598 50.257 14.8658L50.1032 35.8652C50.075 39.7107 48.5204 43.3876 45.7813 46.0869C43.0422 48.7862 39.3429 50.2868 35.4974 50.2586L14.498 50.1048C6.49817 50.0463 0.0459464 43.4988 0.104531 35.499L0.258317 14.4996C0.286479 10.6541 1.84112 6.97723 4.58024 4.27794C7.31936 1.57865 11.0186 0.0780231 14.8641 0.106185ZM14.3275 5.10239C11.9406 5.08491 9.64456 6.01633 7.94442 7.69175C6.24427 9.36718 5.27932 11.6494 5.26184 14.0362L5.10074 36.0356C5.0643 41.0105 9.05972 45.0649 14.0346 45.1013L36.034 45.2624C38.4209 45.2799 40.717 44.3485 42.4171 42.6731C44.1172 40.9976 45.0822 38.7155 45.0997 36.3286L45.2608 14.3292C45.2972 9.3543 41.3018 5.29993 36.3269 5.2635L14.3275 5.10239ZM38.4244 9.02896C39.2532 9.03503 40.0456 9.37008 40.6273 9.96041C41.2091 10.5507 41.5325 11.348 41.5264 12.1768C41.5204 13.0055 41.1853 13.798 40.595 14.3797C40.0047 14.9615 39.2074 15.2849 38.3786 15.2788C37.5499 15.2727 36.7574 14.9377 36.1757 14.3473C35.5939 13.757 35.2705 12.9598 35.2766 12.131C35.2827 11.3022 35.6177 10.5098 36.208 9.92804C36.7984 9.3463 37.5956 9.02289 38.4244 9.02896ZM25.2723 12.6827C28.5874 12.707 31.7571 14.0472 34.0841 16.4085C36.4111 18.7698 37.7047 21.9588 37.6804 25.2739C37.6561 28.5891 36.3159 31.7588 33.9546 34.0857C31.5933 36.4127 28.4043 37.7063 25.0892 37.6821C21.7741 37.6578 18.6044 36.3176 16.2774 33.9563C13.9505 31.595 12.6568 28.406 12.6811 25.0909C12.7054 21.7758 14.0456 18.6061 16.4069 16.2791C18.7682 13.9521 21.9572 12.6585 25.2723 12.6827ZM25.2357 17.6826C23.2466 17.668 21.3332 18.4442 19.9164 19.8404C18.4996 21.2366 17.6955 23.1384 17.681 25.1275C17.6664 27.1166 18.4426 29.0299 19.8388 30.4467C21.2349 31.8635 23.1368 32.6676 25.1258 32.6822C27.1149 32.6968 29.0283 31.9206 30.4451 30.5244C31.8619 29.1282 32.666 27.2264 32.6806 25.2373C32.6951 23.2483 31.9189 21.3349 30.5228 19.9181C29.1266 18.5013 27.2247 17.6972 25.2357 17.6826Z" fill="#25272B"/>
</svg>
