<svg width="113" height="113" viewBox="0 0 113 113" fill="none" xmlns="http://www.w3.org/2000/svg">
<path d="M34.4086 99.4212C32.4217 99.4212 30.7471 98.74 29.3848 97.3778C28.0225 96.0155 27.3429 94.3424 27.3461 92.3587C27.3492 90.3749 28.0288 88.7003 29.3848 87.3349C30.7471 85.9757 32.4217 85.2962 34.4086 85.2962C36.3955 85.2962 38.0685 85.9757 39.4277 87.3349C40.7868 88.694 41.4679 90.3686 41.4711 92.3587C41.4742 94.3487 40.7931 96.0218 39.4277 97.3778C38.0622 98.7337 36.3892 99.4149 34.4086 99.4212ZM78.5916 99.4212C76.6078 99.4212 74.9348 98.74 73.5725 97.3778C72.2102 96.0155 71.5291 94.3424 71.5291 92.3587C71.5291 90.3749 72.2102 88.7003 73.5725 87.3349C74.9348 85.9757 76.6078 85.2962 78.5916 85.2962C80.5754 85.2962 82.25 85.9757 83.6154 87.3349C84.9745 88.6972 85.6541 90.3717 85.6541 92.3587C85.6541 94.3424 84.9745 96.0155 83.6154 97.3778C82.2531 98.74 80.5785 99.4212 78.5916 99.4212ZM27.6898 25.8958L40.2563 52.3378H71.4961C72.0392 52.3378 72.521 52.2013 72.9416 51.9282C73.3653 51.6551 73.7279 51.2785 74.0292 50.7982L86.3462 28.4336C86.7072 27.7682 86.737 27.1796 86.4357 26.668C86.1312 26.1532 85.618 25.8958 84.896 25.8958H27.6898ZM25.3874 21.1875H86.6899C88.7333 21.1875 90.2714 22.0225 91.3041 23.6923C92.3399 25.3591 92.3949 27.0776 91.4689 28.848L78.0125 53.369C77.3313 54.5147 76.4462 55.414 75.357 56.0668C74.2678 56.7197 73.0703 57.0462 71.7645 57.0462H38.1376L32.417 67.5458C31.9336 68.2708 31.9179 69.0556 32.3699 69.8999C32.8219 70.7443 33.5014 71.168 34.4086 71.1712H85.6541V75.8795H34.4086C31.6621 75.8795 29.6124 74.7213 28.2595 72.4048C26.9066 70.0883 26.8737 67.7623 28.1606 65.427L35.242 52.8087L17.9294 16.4792H9.41675V11.7708H20.9145L25.3874 21.1875Z" fill="#B4B4B4"/>
</svg>
