<svg width="52" height="44" viewBox="0 0 52 44" fill="none" xmlns="http://www.w3.org/2000/svg">
<path fill-rule="evenodd" clip-rule="evenodd" d="M36.8004 10.8C36.8004 16.3505 31.9651 20.85 26.0004 20.85C20.0358 20.85 15.2004 16.3505 15.2004 10.8C15.2004 5.24954 20.0358 0.75 26.0004 0.75C31.9651 0.75 36.8004 5.24954 36.8004 10.8ZM33.2004 10.8C33.2004 14.5003 29.9769 17.5 26.0004 17.5C22.024 17.5 18.8004 14.5003 18.8004 10.8C18.8004 7.09969 22.024 4.1 26.0004 4.1C29.9769 4.1 33.2004 7.09969 33.2004 10.8Z" fill="#B4B4B4"/>
<path d="M26.0004 25.875C14.3465 25.875 4.41713 32.2876 0.634766 41.2717C1.55618 42.1231 2.52681 42.9284 3.54236 43.6837C6.35889 35.4354 15.1945 29.225 26.0004 29.225C36.8064 29.225 45.642 35.4354 48.4585 43.6837C49.4741 42.9285 50.4447 42.1231 51.3661 41.2717C47.5838 32.2876 37.6543 25.875 26.0004 25.875Z" fill="#B4B4B4"/>
</svg>
