<svg width="136" height="128" viewBox="0 0 136 128" fill="none" xmlns="http://www.w3.org/2000/svg">
<path d="M39.6667 48V37.3333H119V48H39.6667ZM39.6667 69.3333V58.6666H119V69.3333H39.6667ZM39.6667 90.6666V80H119V90.6666H39.6667ZM22.6667 48C21.0611 48 19.7153 47.4889 18.6292 46.4666C17.5431 45.4444 17 44.1778 17 42.6666C17 41.1555 17.5431 39.8889 18.6292 38.8666C19.7153 37.8444 21.0611 37.3333 22.6667 37.3333C24.2722 37.3333 25.6181 37.8444 26.7042 38.8666C27.7903 39.8889 28.3333 41.1555 28.3333 42.6666C28.3333 44.1778 27.7903 45.4444 26.7042 46.4666C25.6181 47.4889 24.2722 48 22.6667 48ZM22.6667 69.3333C21.0611 69.3333 19.7153 68.8222 18.6292 67.8C17.5431 66.7778 17 65.5111 17 64C17 62.4889 17.5431 61.2222 18.6292 60.2C19.7153 59.1778 21.0611 58.6666 22.6667 58.6666C24.2722 58.6666 25.6181 59.1778 26.7042 60.2C27.7903 61.2222 28.3333 62.4889 28.3333 64C28.3333 65.5111 27.7903 66.7778 26.7042 67.8C25.6181 68.8222 24.2722 69.3333 22.6667 69.3333ZM22.6667 90.6666C21.0611 90.6666 19.7153 90.1555 18.6292 89.1333C17.5431 88.1111 17 86.8444 17 85.3333C17 83.8222 17.5431 82.5555 18.6292 81.5333C19.7153 80.5111 21.0611 80 22.6667 80C24.2722 80 25.6181 80.5111 26.7042 81.5333C27.7903 82.5555 28.3333 83.8222 28.3333 85.3333C28.3333 86.8444 27.7903 88.1111 26.7042 89.1333C25.6181 90.1555 24.2722 90.6666 22.6667 90.6666Z" fill="#B4B4B4"/>
</svg>
