<svg width="102" height="96" viewBox="0 0 102 96" fill="none" xmlns="http://www.w3.org/2000/svg">
<g clip-path="url(#clip0_44_415)">
<path d="M65.875 56H62.5175L61.3275 54.92C65.4925 50.36 68 44.44 68 38C68 23.64 55.6325 12 40.375 12C25.1175 12 12.75 23.64 12.75 38C12.75 52.36 25.1175 64 40.375 64C47.2175 64 53.5075 61.64 58.3525 57.72L59.5 58.84V62L80.75 81.96L87.0825 76L65.875 56ZM40.375 56C29.7925 56 21.25 47.96 21.25 38C21.25 28.04 29.7925 20 40.375 20C50.9575 20 59.5 28.04 59.5 38C59.5 47.96 50.9575 56 40.375 56Z" fill="#25272B"/>
<path d="M65.875 56H62.5175L61.3275 54.92C65.4925 50.36 68 44.44 68 38C68 23.64 55.6325 12 40.375 12C25.1175 12 12.75 23.64 12.75 38C12.75 52.36 25.1175 64 40.375 64C47.2175 64 53.5075 61.64 58.3525 57.72L59.5 58.84V62L80.75 81.96L87.0825 76L65.875 56ZM40.375 56C29.7925 56 21.25 47.96 21.25 38C21.25 28.04 29.7925 20 40.375 20C50.9575 20 59.5 28.04 59.5 38C59.5 47.96 50.9575 56 40.375 56Z" fill="#25272B"/>
</g>
<defs>
<clipPath id="clip0_44_415">
<rect width="102" height="96" fill="white"/>
</clipPath>
</defs>
</svg>
