<svg width="46" height="41" viewBox="0 0 46 41" fill="none" xmlns="http://www.w3.org/2000/svg">
<path d="M23 0.476166C13.1429 0.548459 10.9479 7.43261 14.8438 12.7336C14.187 13.3262 13.7817 14.1745 14.7857 15.0615C16.4286 16.5128 18.0714 16.5128 18.8777 18.0021H27.1223C27.9286 16.5128 29.5714 16.5128 31.2143 15.0615C32.2183 14.1745 31.813 13.3262 31.1562 12.7336C35.0521 7.4327 32.8571 0.548459 23 0.476166ZM18.6725 9.64194C18.7163 9.64167 18.761 9.64257 18.8066 9.64466C21.7231 9.77546 23 15.0615 17.6946 14.2793C16.6255 14.1216 15.9126 9.65663 18.6725 9.64194ZM27.3275 9.64194C30.0875 9.65663 29.3745 14.1216 28.3054 14.2793C23 15.0615 24.2769 9.77546 27.1934 9.64448C27.239 9.64248 27.2838 9.64176 27.3275 9.64194ZM0 10.7076C0.760438 18.7429 6.6202 26.6305 16.0818 32.1865C17.9258 31.5288 19.7543 30.7967 21.2593 30.0207C15.2225 26.648 7.48927 20.8181 0 10.7076ZM46 10.7076C33.5964 27.4524 20.5216 32.4586 15.5977 34.0006C15.9239 34.4881 16.2135 34.9966 16.4921 35.4911C16.8903 36.1976 17.2705 36.8745 17.6405 37.3947C19.4632 36.8685 21.2523 36.2556 23 35.5586L23.0173 35.5655C23.3486 35.4267 23.6789 35.2861 24.0083 35.1437C36.9117 29.689 45.0919 20.3034 46 10.7076ZM23 13.2224L25.0612 16.8642L23 15.7261L20.9388 16.8642L23 13.2224ZM16.2639 18.4026L17.8821 23.0324C17.8821 23.0324 21.0926 25.2928 23 25.2928C24.9074 25.2928 28.1179 23.0324 28.1179 23.0324L29.7361 18.4027L26.955 20.1475L26.1271 21.6213C26.1271 21.6213 24.1654 23.0025 23 23.0025C21.8346 23.0025 19.8729 21.6213 19.8729 21.6213L19.045 20.1475L16.2639 18.4026ZM10.1048 32.2785C10.0244 32.2767 9.94319 32.2775 9.86094 32.2809L9.94884 33.9117C10.6019 33.8843 11.0592 34.1308 11.603 34.6954C12.147 35.2597 12.6626 36.1201 13.1678 37.0164C13.6728 37.9128 14.1645 38.8415 14.8232 39.597C15.4819 40.3523 16.4868 40.9981 17.695 40.8569L17.4527 39.2384C17.0323 39.2875 16.7565 39.1387 16.2874 38.6006C15.8181 38.0625 15.335 37.1983 14.8224 36.2886C14.3098 35.3789 13.7651 34.4197 13.0107 33.6369C12.3035 32.9031 11.3107 32.3048 10.1048 32.2785ZM35.8952 32.2785C34.6892 32.3048 33.6965 32.903 32.9894 33.6369C32.2349 34.4197 31.6902 35.3789 31.1776 36.2886C30.665 37.1984 30.1819 38.0625 29.7126 38.6006C29.2434 39.1387 28.9677 39.2875 28.5472 39.2384L28.305 40.8569C29.5132 40.9981 30.5181 40.3523 31.1768 39.597C31.8355 38.8415 32.3272 37.9128 32.8323 37.0164C33.3374 36.1201 33.8529 35.2597 34.3969 34.6953C34.9408 34.1308 35.398 33.8843 36.0512 33.9117L36.1391 32.2809C36.0578 32.2775 35.9765 32.2767 35.8952 32.2785ZM30.1526 33.9209C28.7182 34.8282 27.0589 35.6371 25.2832 36.4133C26.2971 36.7679 27.3231 37.0951 28.3595 37.3947C28.7295 36.8745 29.1097 36.1976 29.5079 35.4911C29.7865 34.9965 30.0761 34.4881 30.4022 34.0006C30.3231 33.9759 30.2358 33.9475 30.1526 33.9209ZM10.458 36.0408L7.6169 36.9798L8.42847 39.8616L12.1684 38.7997C12.0228 38.5445 11.8799 38.2873 11.7365 38.0326C11.3208 37.2951 10.8977 36.5849 10.458 36.0408ZM35.542 36.0408C35.1023 36.5849 34.6792 37.2951 34.2636 38.0326C34.12 38.2873 33.9772 38.5445 33.8316 38.7997L37.5715 39.8616L38.3831 36.9798L35.542 36.0408ZM4.75104 37.1428C4.70563 37.1437 4.66035 37.1473 4.6155 37.1537C4.57295 37.1597 4.53112 37.1692 4.49054 37.1821C3.30522 37.5631 1.9128 38.8184 2.26776 39.8877C2.58298 40.8375 4.28796 41.0994 5.39863 40.9685C5.79169 40.9222 6.26267 40.6274 6.6548 40.3258L5.82064 37.3644C5.48817 37.2478 5.07992 37.1351 4.75104 37.1428ZM41.249 37.1428C40.9201 37.1351 40.5118 37.2478 40.1795 37.3644L39.3452 40.3258C39.7373 40.6274 40.2083 40.9222 40.6014 40.9685C41.712 41.0994 43.417 40.8375 43.7322 39.8877C44.0872 38.8184 42.6948 37.5631 41.5095 37.1821C41.4689 37.1693 41.427 37.1598 41.3845 37.1538C41.3397 37.1473 41.2944 37.1437 41.249 37.1428Z" fill="#F4A800"/>
</svg>
