<svg width="256" height="244" viewBox="0 0 256 244" fill="none" xmlns="http://www.w3.org/2000/svg">
<path d="M211.3 84.966C211.297 83.7479 211.268 82.5299 211.213 81.313V12.251L192.121 31.344C176.494 12.217 152.723 0 126.096 0C98.387 0 73.77 13.226 58.21 33.71L89.505 65.334C92.5691 59.6728 96.9094 54.8029 102.182 51.11C107.646 46.847 115.387 43.36 126.096 43.36C127.39 43.36 128.389 43.512 129.122 43.796C142.391 44.844 153.892 52.166 160.663 62.794L138.51 84.946C166.569 84.836 198.266 84.772 211.298 84.961" fill="#1C3AA9"/>
<path d="M125.599 0.00292969C124.381 0.00635242 123.163 0.0353588 121.946 0.0899297H52.8838L71.9768 19.1829C52.8498 34.8089 40.6328 58.5809 40.6328 85.2069C40.6328 112.917 53.8588 137.534 74.3428 153.095L105.967 121.8C100.306 118.736 95.4356 114.395 91.7428 109.122C87.4798 103.659 83.9928 95.9169 83.9928 85.2079C83.9928 83.9149 84.1448 82.9159 84.4288 82.1819C85.4768 68.9139 92.7988 57.4129 103.427 50.6419L125.579 72.7939C125.469 44.7339 125.404 13.0369 125.594 0.00492969" fill="#4285F4"/>
<path d="M40.6357 85.2051C40.6391 86.4284 40.6681 87.6461 40.7227 88.8581V157.92L59.8157 138.827C75.4417 157.954 99.2137 170.171 125.84 170.171C153.55 170.171 178.167 156.945 193.728 136.461L162.433 104.837C159.368 110.498 155.028 115.368 149.755 119.061C144.292 123.324 136.55 126.811 125.841 126.811C124.548 126.811 123.549 126.659 122.815 126.374C109.547 125.327 98.0457 118.004 91.2747 107.377L113.427 85.2241C85.3667 85.3341 53.6697 85.3991 40.6377 85.2101" fill="#ABABAB"/>
<path d="M55.013 203.168C52.9377 203.168 51.077 203.561 49.431 204.348C47.7979 205.109 46.3643 206.239 45.244 207.65C44.1173 209.081 43.2497 210.817 42.641 212.856C42.0503 214.878 41.755 217.141 41.755 219.646V226.866C41.755 229.388 42.0503 231.66 42.641 233.682C43.249 235.703 44.108 237.43 45.218 238.862C46.3267 240.293 47.6683 241.393 49.243 242.162C50.817 242.932 52.5883 243.317 54.557 243.317C56.579 243.317 58.3503 243.022 59.871 242.431C61.4097 241.841 62.6977 240.991 63.735 239.881C64.773 238.754 65.5693 237.395 66.124 235.802C66.6967 234.209 67.0367 232.402 67.144 230.381H62.179C62.0537 231.938 61.839 233.271 61.535 234.38C61.2303 235.471 60.783 236.375 60.193 237.09C59.6203 237.788 58.8687 238.307 57.938 238.647C57.0253 238.969 55.8983 239.13 54.557 239.13C53.1257 239.13 51.909 238.817 50.907 238.19C49.905 237.547 49.091 236.67 48.465 235.56C47.857 234.451 47.4097 233.154 47.123 231.669C46.8543 230.184 46.72 228.583 46.72 226.865V219.592C46.72 217.749 46.881 216.076 47.203 214.573C47.543 213.07 48.053 211.791 48.733 210.736C49.413 209.681 50.272 208.866 51.31 208.293C52.3473 207.703 53.5817 207.408 55.013 207.408C56.2123 207.408 57.241 207.587 58.099 207.945C58.959 208.285 59.6747 208.822 60.246 209.555C60.8193 210.27 61.2577 211.183 61.561 212.292C61.8657 213.401 62.0717 214.725 62.179 216.264H67.144C67.0547 214.153 66.7237 212.284 66.151 210.655C65.5777 209.027 64.7813 207.658 63.762 206.549C62.742 205.44 61.4987 204.599 60.032 204.026C58.5827 203.454 56.9097 203.169 55.013 203.168ZM176.213 203.167C174.137 203.167 172.276 203.56 170.63 204.347C168.997 205.108 167.563 206.238 166.443 207.649C165.316 209.08 164.449 210.816 163.84 212.855C163.25 214.877 162.955 217.14 162.955 219.645V226.865C162.955 229.387 163.25 231.659 163.84 233.681C164.448 235.702 165.307 237.429 166.417 238.861C167.526 240.292 168.867 241.392 170.442 242.161C172.017 242.931 173.788 243.316 175.756 243.316C177.778 243.316 179.549 243.021 181.07 242.43C182.609 241.84 183.897 240.99 184.935 239.88C185.972 238.753 186.768 237.394 187.323 235.801C187.896 234.208 188.236 232.401 188.343 230.38H183.378C183.253 231.937 183.038 233.27 182.734 234.379C182.43 235.47 181.983 236.374 181.392 237.089C180.819 237.787 180.068 238.306 179.138 238.646C178.225 238.968 177.097 239.129 175.756 239.129C174.325 239.129 173.108 238.816 172.106 238.189C171.104 237.546 170.29 236.669 169.664 235.559C169.056 234.45 168.609 233.153 168.322 231.668C168.054 230.183 167.92 228.582 167.92 226.864V219.591C167.92 217.748 168.081 216.075 168.403 214.572C168.743 213.069 169.253 211.79 169.933 210.735C170.613 209.68 171.472 208.865 172.509 208.292C173.547 207.702 174.781 207.407 176.212 207.407C177.412 207.407 178.441 207.586 179.299 207.944C180.157 208.284 180.873 208.821 181.446 209.554C182.018 210.269 182.456 211.182 182.761 212.291C183.066 213.4 183.271 214.724 183.378 216.263H188.343C188.254 214.152 187.923 212.283 187.35 210.654C186.777 209.026 185.98 207.657 184.961 206.548C183.941 205.439 182.698 204.598 181.231 204.025C179.782 203.453 178.109 203.167 176.212 203.166M83.301 203.703L70.715 242.78H75.76L78.793 232.581H91.997L95.083 242.78H100.129L87.515 203.705L83.301 203.703ZM105.441 203.703V242.778H110.352V227.48H117.893C119.772 227.48 121.436 227.221 122.885 226.702C124.334 226.165 125.551 225.396 126.535 224.394C127.537 223.392 128.288 222.157 128.789 220.69C129.309 219.205 129.569 217.524 129.568 215.645C129.568 213.909 129.308 212.317 128.789 210.868C128.289 209.401 127.547 208.139 126.562 207.084C125.578 206.01 124.352 205.178 122.885 204.588C121.436 203.997 119.772 203.702 117.893 203.702L105.441 203.703ZM133.325 203.703V207.943H143.577V242.778H148.487V207.943H158.767V203.703H133.325ZM194.971 203.703V242.778H199.881V224.716H215.609V242.778H220.547V203.703H215.609V220.503H199.882V203.703H194.971ZM239.171 203.703L226.585 242.778H231.631L234.663 232.579H247.867L250.954 242.778H256L243.386 203.703H239.171ZM110.351 207.943H117.893C119.092 207.943 120.112 208.158 120.953 208.587C121.811 209.017 122.509 209.59 123.046 210.305C123.613 211.046 124.024 211.895 124.253 212.8C124.522 213.73 124.656 214.696 124.656 215.699C124.656 216.808 124.522 217.828 124.253 218.759C124.023 219.631 123.612 220.445 123.046 221.147C122.509 221.809 121.811 222.328 120.952 222.703C120.112 223.079 119.092 223.267 117.892 223.267H110.352L110.351 207.943ZM85.393 210.573L90.734 228.339H80.081L85.393 210.573ZM241.265 210.573L246.605 228.339H235.951L241.265 210.573ZM10.09 213.203C8.85467 213.203 7.79 213.516 6.896 214.143C6.01933 214.77 5.286 215.619 4.696 216.692L4.615 213.74H0V242.778H4.75V222.005C5.198 220.77 5.83333 219.795 6.656 219.08C7.496 218.364 8.56033 218.006 9.849 218.006C10.261 218.006 10.6277 218.024 10.949 218.06C11.2723 218.077 11.6213 218.122 11.996 218.194L11.97 213.578C11.8579 213.529 11.7404 213.492 11.62 213.47C11.4633 213.412 11.3021 213.367 11.138 213.336C10.9517 213.299 10.7634 213.272 10.574 213.256C10.4151 213.222 10.2534 213.204 10.091 213.202L10.09 213.203ZM26.058 213.203C24.6807 213.203 23.3477 213.445 22.059 213.928C20.771 214.411 19.626 215.207 18.624 216.316C17.64 217.408 16.844 218.839 16.236 220.61C15.6273 222.364 15.323 224.52 15.323 227.078V230.352C15.323 232.571 15.5827 234.494 16.102 236.122C16.62 237.751 17.3623 239.102 18.329 240.175C19.3167 241.232 20.5398 242.041 21.899 242.537C23.2937 243.056 24.859 243.315 26.595 243.315C27.847 243.315 28.9653 243.19 29.95 242.939C30.9513 242.689 31.837 242.367 32.607 241.973C33.3271 241.597 33.9948 241.128 34.593 240.578C35.1198 240.09 35.5962 239.551 36.015 238.968L33.546 235.962C33.1527 236.445 32.7323 236.892 32.285 237.303C31.837 237.697 31.345 238.046 30.809 238.35C30.2482 238.646 29.653 238.871 29.037 239.021C28.3252 239.19 27.5955 239.271 26.864 239.263C24.6627 239.263 22.9717 238.556 21.791 237.143C20.6283 235.73 20.047 233.466 20.047 230.353V229.681H36.257V226.917C36.257 224.698 36.069 222.739 35.693 221.04C35.317 219.341 34.7177 217.909 33.895 216.746C33.0939 215.602 32.0001 214.693 30.728 214.116C29.44 213.507 27.8833 213.203 26.058 213.203ZM26.058 217.283C27.096 217.283 27.955 217.471 28.635 217.846C29.3077 218.215 29.8649 218.763 30.245 219.429C30.6563 220.109 30.9517 220.923 31.131 221.872C31.3277 222.802 31.4527 223.831 31.506 224.958V225.602H20.074C20.146 223.974 20.3427 222.623 20.664 221.549C20.9867 220.476 21.4073 219.626 21.926 219C22.4627 218.356 23.08 217.909 23.778 217.658C24.5108 217.401 25.2826 217.274 26.059 217.282" fill="#A6A6A6"/>
</svg>
