<svg width="60" height="60" viewBox="0 0 60 60" fill="none" xmlns="http://www.w3.org/2000/svg">
<path d="M29.875 45C30.75 45 31.49 44.6975 32.095 44.0925C32.7 43.4875 33.0017 42.7483 33 41.875C33 41 32.6983 40.26 32.095 39.655C31.4917 39.05 30.7517 38.7483 29.875 38.75C29 38.75 28.2608 39.0525 27.6575 39.6575C27.0542 40.2625 26.7517 41.0017 26.75 41.875C26.75 42.75 27.0525 43.49 27.6575 44.095C28.2625 44.7 29.0017 45.0017 29.875 45ZM27.625 35.375H32.25C32.25 34 32.4067 32.9167 32.72 32.125C33.0333 31.3333 33.9183 30.25 35.375 28.875C36.4583 27.7917 37.3125 26.76 37.9375 25.78C38.5625 24.8 38.875 23.6233 38.875 22.25C38.875 19.9167 38.0208 18.125 36.3125 16.875C34.6042 15.625 32.5833 15 30.25 15C27.875 15 25.9475 15.625 24.4675 16.875C22.9875 18.125 21.9567 19.625 21.375 21.375L25.5 23C25.7083 22.25 26.1775 21.4375 26.9075 20.5625C27.6375 19.6875 28.7517 19.25 30.25 19.25C31.5833 19.25 32.5833 19.615 33.25 20.345C33.9167 21.075 34.25 21.8767 34.25 22.75C34.25 23.5833 34 24.365 33.5 25.095C33 25.825 32.375 26.5017 31.625 27.125C29.7917 28.75 28.6667 29.9792 28.25 30.8125C27.8333 31.6458 27.625 33.1667 27.625 35.375ZM30 55C26.5417 55 23.2917 54.3433 20.25 53.03C17.2083 51.7167 14.5625 49.9358 12.3125 47.6875C10.0625 45.4375 8.28167 42.7917 6.97 39.75C5.65833 36.7083 5.00167 33.4583 5 30C5 26.5417 5.65667 23.2917 6.97 20.25C8.28333 17.2083 10.0642 14.5625 12.3125 12.3125C14.5625 10.0625 17.2083 8.28167 20.25 6.97C23.2917 5.65833 26.5417 5.00167 30 5C33.4583 5 36.7083 5.65667 39.75 6.97C42.7917 8.28333 45.4375 10.0642 47.6875 12.3125C49.9375 14.5625 51.7192 17.2083 53.0325 20.25C54.3458 23.2917 55.0017 26.5417 55 30C55 33.4583 54.3433 36.7083 53.03 39.75C51.7167 42.7917 49.9358 45.4375 47.6875 47.6875C45.4375 49.9375 42.7917 51.7192 39.75 53.0325C36.7083 54.3458 33.4583 55.0017 30 55Z" fill="#D9D9D9"/>
</svg>
