<svg width="93" height="96" viewBox="0 0 93 96" fill="none" xmlns="http://www.w3.org/2000/svg">
<g clip-path="url(#clip0_40_408)">
<g filter="url(#filter0_d_40_408)">
<path d="M49.6781 94.359C67.3905 94.359 83.3168 84.9249 91.6324 69.7238L54.4408 48L91.6324 26.2762C83.3168 11.0751 67.3905 1.64103 49.6781 1.64103C23.4168 1.64103 2.05151 22.4377 2.05151 48C2.05151 73.5623 23.4168 94.359 49.6781 94.359ZM47.2968 20.1846C49.1921 20.1852 51.0096 20.9187 52.3493 22.2237C53.6891 23.5286 54.4414 25.2982 54.4408 27.1431C54.4402 28.988 53.6866 30.7571 52.346 32.0612C51.0053 33.3653 49.1874 34.0976 47.292 34.097C45.3967 34.0963 43.5792 33.3629 42.2395 32.0579C40.8997 30.7529 40.1474 28.9834 40.148 27.1385C40.1487 25.2936 40.9022 23.5245 42.2428 22.2204C43.5835 20.9163 45.4015 20.184 47.2968 20.1846Z" fill="#FFC400"/>
</g>
</g>
<defs>
<filter id="filter0_d_40_408" x="-1.94849" y="1.64103" width="97.5808" height="100.718" filterUnits="userSpaceOnUse" color-interpolation-filters="sRGB">
<feFlood flood-opacity="0" result="BackgroundImageFix"/>
<feColorMatrix in="SourceAlpha" type="matrix" values="0 0 0 0 0 0 0 0 0 0 0 0 0 0 0 0 0 0 127 0" result="hardAlpha"/>
<feOffset dy="4"/>
<feGaussianBlur stdDeviation="2"/>
<feComposite in2="hardAlpha" operator="out"/>
<feColorMatrix type="matrix" values="0 0 0 0 0 0 0 0 0 0 0 0 0 0 0 0 0 0 0.25 0"/>
<feBlend mode="normal" in2="BackgroundImageFix" result="effect1_dropShadow_40_408"/>
<feBlend mode="normal" in="SourceGraphic" in2="effect1_dropShadow_40_408" result="shape"/>
</filter>
<clipPath id="clip0_40_408">
<rect width="93" height="96" fill="white"/>
</clipPath>
</defs>
</svg>
