<svg width="93" height="96" viewBox="0 0 93 96" fill="none" xmlns="http://www.w3.org/2000/svg">
<g clip-path="url(#clip0_40_496)">
<g filter="url(#filter0_d_40_496)">
<path d="M46.7964 91.9851C70.5036 91.9851 89.7221 72.7136 89.7221 48.9412C89.7221 25.1687 70.5036 5.89726 46.7964 5.89726C23.0891 5.89726 3.87061 25.1687 3.87061 48.9412C3.87061 72.7136 23.0891 91.9851 46.7964 91.9851Z" fill="#F4F4F4"/>
<path d="M30.1138 15.1922C30.0842 14.9853 30.0143 14.7863 29.9081 14.6065C29.8018 14.4268 29.6613 14.2698 29.4945 14.1445C29.3277 14.0192 29.1379 13.9281 28.936 13.8763C28.7341 13.8246 28.524 13.8133 28.3177 13.843L26.7469 14.0657C26.5406 14.0953 26.3421 14.1655 26.1629 14.272C25.9836 14.3786 25.827 14.5195 25.7021 14.6868C25.5771 14.854 25.4863 15.0443 25.4347 15.2468C25.3831 15.4492 25.3718 15.6599 25.4014 15.8668L26.9881 27.004C27.047 27.4217 27.269 27.7989 27.6053 28.0525C27.9415 28.3061 28.3644 28.4154 28.781 28.3564L30.3518 28.1305C30.5584 28.1012 30.7572 28.0314 30.9368 27.925C31.1164 27.8186 31.2734 27.6777 31.3986 27.5104C31.5239 27.3431 31.615 27.1527 31.6668 26.9501C31.7186 26.7474 31.7301 26.5365 31.7005 26.3294L30.1138 15.1922ZM58.969 20.4712C58.8759 20.2842 58.747 20.1173 58.5896 19.9803C58.4322 19.8432 58.2494 19.7386 58.0516 19.6724C57.8539 19.6062 57.6451 19.5797 57.4371 19.5945C57.2292 19.6092 57.0261 19.665 56.8397 19.7584L40.973 27.7136C40.7864 27.8069 40.62 27.9362 40.4833 28.0941C40.3467 28.2519 40.2423 28.4352 40.1763 28.6335C40.1103 28.8318 40.0839 29.0412 40.0986 29.2497C40.1134 29.4582 40.1689 29.6618 40.2621 29.8488L40.973 31.2712C41.1609 31.6481 41.4904 31.9349 41.889 32.0685C42.2876 32.2022 42.7228 32.1718 43.0991 31.984L58.9658 24.0288C59.3417 23.8403 59.6277 23.5099 59.761 23.1102C59.8943 22.7105 59.8639 22.2741 59.6766 21.8968L58.969 20.4712ZM72.9698 29.6706C72.9381 29.2499 72.7412 28.8591 72.4222 28.584C72.1032 28.3089 71.6884 28.1721 71.2688 28.2037L69.6853 28.3214C69.2658 28.3539 68.8763 28.5522 68.6026 28.8726C68.3288 29.1931 68.1932 29.6095 68.2256 30.0302L69.8123 51.1782C69.8447 51.5977 70.0416 51.9873 70.3598 52.2616C70.6779 52.5359 71.0915 52.6727 71.51 52.642L73.0935 52.5242C73.513 52.4925 73.9028 52.295 74.1771 51.9752C74.4515 51.6553 74.5879 51.2393 74.5564 50.8187L72.9698 29.6706ZM25.6489 34.7905C25.5558 34.6035 25.4269 34.4367 25.2695 34.2996C25.1121 34.1625 24.9293 34.0579 24.7316 33.9917C24.5338 33.9255 24.325 33.899 24.117 33.9138C23.9091 33.9286 23.7061 33.9843 23.5196 34.0778L5.04125 43.344C4.80183 43.4639 4.59655 43.6426 4.44453 43.8635C4.2925 44.0844 4.19867 44.3402 4.17175 44.6072C4.1305 45.0209 4.09559 45.4378 4.06386 45.8578C4.04419 46.1424 4.10118 46.427 4.22887 46.682L4.47956 47.1847C4.6681 47.5611 4.9978 47.8472 5.39636 47.9802C5.79492 48.1132 6.22982 48.0823 6.6057 47.8943L25.6457 38.3481C26.0217 38.1596 26.3076 37.8293 26.4409 37.4295C26.5742 37.0298 26.5438 36.5934 26.3566 36.2161L25.6489 34.7905ZM41.6489 42.1061C41.4689 42.0008 41.2699 41.932 41.0634 41.9038C40.8569 41.8755 40.6468 41.8884 40.4453 41.9416C40.2437 41.9948 40.0546 42.0873 39.8886 42.2138C39.7227 42.3403 39.5833 42.4983 39.4783 42.6789L38.6786 44.0536C38.5736 44.2341 38.505 44.4336 38.4768 44.6407C38.4487 44.8478 38.4615 45.0584 38.5145 45.2605C38.5676 45.4626 38.6598 45.6523 38.786 45.8187C38.9122 45.985 39.0698 46.1248 39.2498 46.2301L58.2899 57.3674C58.4699 57.4727 58.6688 57.5415 58.8754 57.5697C59.0819 57.5979 59.2919 57.5851 59.4935 57.5319C59.6951 57.4787 59.8842 57.3862 60.0501 57.2597C60.216 57.1332 60.3555 56.9751 60.4604 56.7946L61.2601 55.4199C61.3652 55.2394 61.4338 55.0399 61.4619 54.8328C61.4901 54.6257 61.4773 54.4151 61.4242 54.213C61.3712 54.0109 61.2789 53.8212 61.1528 53.6548C61.0266 53.4885 60.869 53.3487 60.6889 53.2434L41.6489 42.1061ZM28.6858 47.2897C28.478 47.2723 28.2689 47.2961 28.0703 47.3597C27.8717 47.4234 27.6876 47.5257 27.5285 47.6607C27.3693 47.7958 27.2383 47.961 27.1428 48.1468C27.0474 48.3327 26.9894 48.5356 26.9722 48.7439L25.3855 67.8364C25.3681 68.0447 25.3919 68.2544 25.4553 68.4536C25.5188 68.6527 25.6208 68.8373 25.7555 68.9969C25.8902 69.1565 26.0549 69.2879 26.2403 69.3836C26.4256 69.4793 26.628 69.5374 26.8357 69.5547L28.4161 69.6852C28.8352 69.7204 29.251 69.5874 29.5724 69.3153C29.8937 69.0432 30.0941 68.6543 30.1297 68.2341L31.7163 49.1417C31.7337 48.9334 31.71 48.7236 31.6465 48.5245C31.583 48.3254 31.481 48.1408 31.3464 47.9812C31.2117 47.8216 31.0469 47.6902 30.8616 47.5945C30.6762 47.4988 30.4739 47.4406 30.2661 47.4234L28.6858 47.2897ZM87.529 53.883C87.436 53.6959 87.307 53.5291 87.1496 53.392C86.9922 53.2549 86.8094 53.1503 86.6117 53.0841C86.4139 53.0179 86.2051 52.9915 85.9972 53.0062C85.7892 53.021 85.5862 53.0767 85.3997 53.1702L75.8797 57.9433C75.6932 58.0366 75.5268 58.1659 75.3901 58.3238C75.2534 58.4816 75.1491 58.6649 75.083 58.8632C75.017 59.0615 74.9906 59.2709 75.0054 59.4794C75.0201 59.6879 75.0757 59.8915 75.1689 60.0785L75.8797 61.5041C76.0682 61.8805 76.3979 62.1665 76.7965 62.2995C77.1951 62.4326 77.63 62.4017 78.0058 62.2137L87.5259 57.4405C87.9018 57.2521 88.1878 56.9217 88.321 56.522C88.4543 56.1223 88.424 55.6859 88.2367 55.3086L87.529 53.883ZM8.90003 56.89C8.61846 56.5766 8.22428 56.3881 7.80415 56.366C7.38402 56.344 6.97235 56.4901 6.65965 56.7723L5.67274 57.6633C5.45939 57.8559 5.30214 58.1029 5.21776 58.3781C5.13337 58.6532 5.12501 58.9462 5.19357 59.2257L5.33319 59.7889C5.39817 60.0351 5.52114 60.2621 5.69178 60.4508L19.6418 75.9952C19.9233 76.3087 20.3175 76.4971 20.7377 76.5192C21.1578 76.5413 21.5695 76.3952 21.8822 76.1129L23.0595 75.0501C23.3725 74.7682 23.5611 74.3732 23.5837 73.9519C23.6063 73.5306 23.4611 73.1176 23.1801 72.8036L8.90003 56.8932V56.89ZM62.1867 66.6463C62.0996 66.4562 61.9759 66.2853 61.8228 66.1432C61.6697 66.0011 61.4901 65.8907 61.2944 65.8183C61.0987 65.7459 60.8907 65.7129 60.6822 65.7212C60.4738 65.7295 60.269 65.7789 60.0797 65.8667L39.4529 75.4129C39.2634 75.5003 39.0929 75.6243 38.9512 75.7778C38.8096 75.9314 38.6995 76.1114 38.6272 76.3077C38.555 76.5039 38.5221 76.7125 38.5304 76.9215C38.5387 77.1306 38.588 77.3359 38.6755 77.5258L39.3419 78.9705C39.4293 79.1602 39.5532 79.3309 39.7064 79.4726C39.8597 79.6144 40.0393 79.7244 40.235 79.7965C40.4306 79.8686 40.6386 79.9014 40.8469 79.8928C41.0552 79.8843 41.2598 79.8347 41.449 79.7469L62.0757 70.2007C62.4571 70.0236 62.7528 69.7019 62.898 69.3064C63.0432 68.9109 63.0259 68.4737 62.85 68.0909L62.1867 66.6463ZM70.0059 69.5388C69.5884 69.4866 69.1674 69.6027 68.8354 69.8617C68.5033 70.1207 68.2874 70.5013 68.2351 70.9198L66.6485 83.6481C66.5964 84.0667 66.7122 84.4888 66.9705 84.8218C67.2288 85.1548 67.6083 85.3713 68.0257 85.4237L68.6286 85.5001C68.994 85.5469 69.3642 85.4647 69.6758 85.2678C70.0503 85.0291 70.4216 84.7841 70.7897 84.5359C70.9769 84.4089 71.1349 84.2433 71.2531 84.0501C71.3713 83.857 71.447 83.6407 71.4751 83.4158L72.9571 71.5149C72.9833 71.3073 72.9685 71.0967 72.9134 70.8949C72.8584 70.6932 72.7642 70.5043 72.6363 70.3391C72.5084 70.1739 72.3492 70.0356 72.1679 69.9321C71.9867 69.8286 71.7868 69.762 71.5798 69.7361L70.0059 69.5388ZM26.731 80.6665C26.4335 80.3682 26.03 80.2007 25.6092 80.2007C25.1885 80.2007 24.785 80.3682 24.4875 80.6665L22.8691 82.2894C22.7028 82.4558 22.5755 82.6571 22.4962 82.8789C22.417 83.1007 22.3879 83.3373 22.411 83.5717C22.434 83.8062 22.5087 84.0325 22.6297 84.2345C22.7506 84.4364 22.9147 84.6089 23.1102 84.7395C23.5767 85.0546 24.0527 85.3569 24.5319 85.6496C24.8356 85.8356 25.1928 85.9138 25.5462 85.8717C25.8996 85.8296 26.2286 85.6695 26.4803 85.4173L27.8512 84.0427C28.1487 83.7443 28.3158 83.3397 28.3158 82.9178C28.3158 82.4959 28.1487 82.0913 27.8512 81.7929L26.731 80.6665ZM38.704 82.0348C38.3674 81.7816 37.9442 81.6729 37.5276 81.7326C37.1111 81.7922 36.7352 82.0154 36.4827 82.353L35.5307 83.6258C35.2782 83.9634 35.1698 84.3877 35.2293 84.8054C35.2888 85.2232 35.5114 85.6001 35.848 85.8533C39.3324 88.4753 43.4894 90.1713 47.1769 91.2151C47.9067 91.4187 48.6207 91.6033 49.3157 91.7624C49.4676 91.7968 49.6237 91.8086 49.779 91.7974C51.6822 91.6664 53.5745 91.4081 55.4434 91.0241C55.82 90.9482 56.1564 90.7379 56.3901 90.4321C56.6238 90.1264 56.7389 89.746 56.7141 89.3616C56.6893 88.9771 56.5262 88.6148 56.2552 88.3418C55.9841 88.0688 55.6235 87.9037 55.2403 87.8771C52.9488 87.6785 50.682 87.2576 48.4716 86.6202C45.1269 85.6751 41.5664 84.1859 38.704 82.0348Z" fill="#BEBEBE"/>
<path d="M19.0077 19.316L27.3536 17.2222C27.6218 17.1543 27.8799 17.0516 28.1215 16.9167L39.736 10.4475C40.1906 10.1937 40.576 9.83164 40.8582 9.39327C41.1404 8.95489 41.3108 8.45366 41.3544 7.9337C32.5108 9.105 24.2867 13.1278 17.9224 19.3955C18.2862 19.4308 18.6534 19.406 19.0077 19.316ZM7.14576 60.3934C6.07975 56.6699 5.5403 52.8149 5.54322 48.9411C5.54322 44.4003 6.27309 40.0313 7.62176 35.9455L8.71656 43.8434V60.0783L7.14576 60.3934ZM73.3258 80.6218C67.718 85.3569 60.949 88.5013 53.7209 89.7289L54.73 88.717L69.01 82.3528L73.3258 80.6218ZM86.5364 37.8038C87.5435 41.43 88.0528 45.1769 88.05 48.9411C88.0562 53.9322 87.1595 58.883 85.4035 63.5532C84.0389 61.5516 82.8648 58.3282 84.8767 55.3052C87.4154 51.4867 86.9933 42.0455 86.4634 37.8038H86.5364ZM68.4007 13.6933C69.6447 14.4633 70.8442 15.297 71.9993 16.188L77.1909 24.5187C77.5723 25.1288 77.736 25.8507 77.6553 26.5662C77.5746 27.2818 77.2543 27.9487 76.7466 28.4581L73.935 31.2742C73.4346 31.7754 72.7815 32.0945 72.0796 32.181C71.3776 32.2675 70.6669 32.1163 70.0604 31.7515L57.8557 24.4105C57.3864 24.1277 56.9979 23.7279 56.7282 23.2501C56.4585 22.7722 56.3168 22.2325 56.3167 21.6834V15.9016C56.3166 15.4542 56.4107 15.0118 56.5927 14.6033C56.7747 14.1948 57.0406 13.8294 57.373 13.5309C57.7054 13.2324 58.0969 13.0076 58.5218 12.871C58.9467 12.7345 59.3956 12.6894 59.8391 12.7386L68.4007 13.6933ZM26.5793 26.8479L19.4805 37.5206C19.1166 38.0688 18.9312 38.7167 18.9499 39.375C18.9687 40.0332 19.1907 40.6695 19.5853 41.1959L26.2969 50.1694C26.7151 50.7305 27.3062 51.1376 27.9787 51.3274C28.6511 51.5173 29.3673 51.4793 30.016 51.2194L41.6304 46.5577C42.2187 46.3213 42.7229 45.9137 43.0781 45.3874C43.4333 44.8611 43.6231 44.2402 43.6233 43.6047V30.8669C43.6229 30.1315 43.3684 29.419 42.9033 28.8505C42.4382 28.282 41.791 27.8926 41.0719 27.7485L29.8383 25.4924C29.2223 25.3696 28.5838 25.4328 28.0036 25.6741C27.4235 25.9154 26.9278 26.3239 26.5793 26.8479ZM41.751 77.9743L40.926 83.7975C40.6657 85.6049 38.9268 86.9478 37.1148 86.795C33.402 86.4832 28.0232 85.8022 24.5833 82.3528C21.0926 78.8526 19.5948 75.9251 18.8332 73.5703C18.3953 72.202 19.1251 70.7701 20.404 70.1273L26.1096 67.2666C26.6102 67.016 27.168 66.9025 27.7264 66.9377C28.2848 66.9729 28.824 67.1556 29.2893 67.4671L40.3738 74.875C40.8722 75.2083 41.2663 75.6762 41.5105 76.2247C41.7548 76.7731 41.8393 77.3797 41.7542 77.9743H41.751ZM56.3167 68.6636V55.8685C56.3171 55.2326 56.5074 54.6115 56.8632 54.0851C57.219 53.5588 57.7238 53.1514 58.3127 52.9155L69.87 48.2792C70.5296 48.0146 71.2586 47.9796 71.9404 48.1798C72.6222 48.38 73.2173 48.8038 73.6304 49.3834L78.9077 56.7912C79.2666 57.2954 79.471 57.8936 79.4958 58.5126C79.5206 59.1315 79.3648 59.7442 79.0473 60.2756L71.774 72.4311C71.4314 73.0044 70.9174 73.4549 70.3051 73.7187C69.6928 73.9826 69.0132 74.0465 68.3626 73.9013L58.8014 71.7693C58.0967 71.6122 57.4665 71.2189 57.0148 70.6543C56.563 70.0896 56.3168 69.3874 56.3167 68.6636Z" fill="#3F5FFF"/>
<path fill-rule="evenodd" clip-rule="evenodd" d="M91.2229 48.9412C91.2229 73.545 71.3324 93.4902 46.7961 93.4902C22.2599 93.4902 2.36938 73.545 2.36938 48.9412C2.36938 24.3374 22.2599 4.39216 46.7961 4.39216C71.3324 4.39216 91.2229 24.3374 91.2229 48.9412ZM46.7961 90.3081C69.5807 90.3081 88.0495 71.7885 88.0495 48.9412C88.0495 26.0939 69.5807 7.57423 46.7961 7.57423C24.0116 7.57423 5.54272 26.0939 5.54272 48.9412C5.54272 71.7885 24.0116 90.3081 46.7961 90.3081Z" fill="#1C5CD7"/>
</g>
</g>
<defs>
<filter id="filter0_d_40_496" x="-1.63062" y="4.39216" width="96.8535" height="97.098" filterUnits="userSpaceOnUse" color-interpolation-filters="sRGB">
<feFlood flood-opacity="0" result="BackgroundImageFix"/>
<feColorMatrix in="SourceAlpha" type="matrix" values="0 0 0 0 0 0 0 0 0 0 0 0 0 0 0 0 0 0 127 0" result="hardAlpha"/>
<feOffset dy="4"/>
<feGaussianBlur stdDeviation="2"/>
<feComposite in2="hardAlpha" operator="out"/>
<feColorMatrix type="matrix" values="0 0 0 0 0 0 0 0 0 0 0 0 0 0 0 0 0 0 0.25 0"/>
<feBlend mode="normal" in2="BackgroundImageFix" result="effect1_dropShadow_40_496"/>
<feBlend mode="normal" in="SourceGraphic" in2="effect1_dropShadow_40_496" result="shape"/>
</filter>
<clipPath id="clip0_40_496">
<rect width="93" height="96" fill="white"/>
</clipPath>
</defs>
</svg>
