<svg width="101" height="86" viewBox="0 0 101 86" fill="none" xmlns="http://www.w3.org/2000/svg">
<g filter="url(#filter0_d_40_471)">
<path d="M79.7359 77.9965H21.3469C20.2307 77.997 19.1255 77.7684 18.0942 77.3237C17.063 76.879 16.126 76.227 15.3367 75.405C14.5475 74.583 13.9216 73.607 13.4946 72.5329C13.0677 71.4588 12.8482 70.3076 12.8486 69.1451V62.3312L50.543 58.4141L88.2968 62.3278V69.1107C88.2855 71.4688 87.3795 73.7267 85.7765 75.3919C84.1734 77.0571 82.0032 77.9946 79.7392 78L79.7359 77.9965Z" fill="#E19747"/>
<path d="M61.3212 2.06616e-07H39.7985C36.1948 -0.000451129 32.6263 0.738529 29.2968 2.17473C25.9673 3.61094 22.942 5.71624 20.3938 8.37038C17.8455 11.0245 15.8243 14.1755 14.4454 17.6434C13.0665 21.1113 12.357 24.8282 12.3574 28.5817V33.1277H88.7953V28.5817C88.7623 12.8099 76.4636 2.06616e-07 61.3212 2.06616e-07Z" fill="#F3AD61"/>
<path d="M61.1232 8.4012C61.1355 8.75736 61.0788 9.11246 60.9564 9.44528C60.8341 9.77811 60.6486 10.0818 60.411 10.3383C60.1735 10.5948 59.8887 10.7988 59.5738 10.9382C59.2589 11.0775 58.9202 11.1493 58.578 11.1493C58.2359 11.1493 57.8972 11.0775 57.5823 10.9382C57.2673 10.7988 56.9826 10.5948 56.745 10.3383C56.5075 10.0818 56.322 9.77811 56.1996 9.44528C56.0773 9.11246 56.0205 8.75736 56.0329 8.4012C56.0566 7.71464 56.3351 7.06444 56.8098 6.58747C57.2846 6.1105 57.9184 5.84397 58.578 5.84397C59.2376 5.84397 59.8715 6.1105 60.3462 6.58747C60.8209 7.06444 61.0995 7.71464 61.1232 8.4012ZM42.5102 11.0539C42.8522 11.0667 43.1931 11.0076 43.5127 10.8802C43.8322 10.7527 44.1238 10.5595 44.3701 10.3121C44.6163 10.0647 44.8122 9.76809 44.946 9.44007C45.0798 9.11205 45.1487 8.75931 45.1487 8.40292C45.1487 8.04653 45.0798 7.69379 44.946 7.36577C44.8122 7.03775 44.6163 6.74116 44.3701 6.49373C44.1238 6.2463 43.8322 6.0531 43.5127 5.92565C43.1931 5.7982 42.8522 5.73912 42.5102 5.75195C41.8511 5.77667 41.2268 6.06679 40.7689 6.56124C40.311 7.0557 40.0551 7.71591 40.0551 8.40292C40.0551 9.08993 40.311 9.75014 40.7689 10.2446C41.2268 10.739 41.8511 11.0292 42.5102 11.0539ZM69.9843 15.8404C69.9843 16.544 69.716 17.2187 69.2384 17.7162C68.7608 18.2136 68.113 18.4931 67.4375 18.4931C66.762 18.4931 66.1142 18.2136 65.6366 17.7162C65.159 17.2187 64.8907 16.544 64.8907 15.8404C64.8907 15.1369 65.159 14.4622 65.6366 13.9647C66.1142 13.4672 66.762 13.1877 67.4375 13.1877C68.113 13.1877 68.7608 13.4672 69.2384 13.9647C69.716 14.4622 69.9843 15.1369 69.9843 15.8404ZM33.6524 18.4931C34.3279 18.4926 34.9755 18.2127 35.4528 17.7149C35.9301 17.2171 36.198 16.5422 36.1976 15.8387C36.1972 15.1352 35.9284 14.4606 35.4505 13.9635C34.9726 13.4663 34.3246 13.1873 33.6491 13.1877C32.9737 13.1877 32.3259 13.4672 31.8482 13.9647C31.3706 14.4622 31.1023 15.1369 31.1023 15.8404C31.1023 16.544 31.3706 17.2187 31.8482 17.7162C32.3259 18.2136 32.9737 18.4931 33.6491 18.4931H33.6524ZM50.5433 21.5203C50.8853 21.5332 51.2262 21.4741 51.5457 21.3466C51.8653 21.2192 52.1569 21.026 52.4031 20.7785C52.6494 20.5311 52.8453 20.2345 52.9791 19.9065C53.1128 19.5785 53.1818 19.2258 53.1818 18.8694C53.1818 18.513 53.1128 18.1602 52.9791 17.8322C52.8453 17.5042 52.6494 17.2076 52.4031 16.9602C52.1569 16.7127 51.8653 16.5195 51.5457 16.3921C51.2262 16.2646 50.8853 16.2056 50.5433 16.2184C49.8841 16.2431 49.2599 16.5332 48.802 17.0277C48.344 17.5221 48.0881 18.1824 48.0881 18.8694C48.0881 19.5564 48.344 20.2166 48.802 20.711C49.2599 21.2055 49.8841 21.4956 50.5433 21.5203Z" fill="#FFF3D7"/>
<path d="M88.264 32.334H12.8191V43.3537L50.4805 50.0232L88.264 43.3537V32.334Z" fill="#F8312F"/>
<path d="M17.0223 28.0904C19.899 26.4926 23.3135 24.6199 29.6476 24.6199C35.9849 24.6199 39.3928 26.496 42.2662 28.0904L42.3256 28.1248C44.6514 29.4202 46.4824 30.4373 50.5731 30.4373C54.6705 30.4373 56.4981 29.4202 58.8239 28.1282L58.8866 28.0938C61.7567 26.496 65.1679 24.6199 71.5053 24.6199C77.8394 24.6199 81.2506 26.496 84.1207 28.0938L84.1867 28.1282C86.5059 29.4236 88.3269 30.4373 92.4012 30.4373C93.6209 30.4373 94.7906 30.9419 95.653 31.8402C96.5155 32.7385 97 33.9569 97 35.2272C97 36.4976 96.5155 37.7159 95.653 38.6142C94.7906 39.5125 93.6209 40.0172 92.4012 40.0172C86.0605 40.0172 82.6526 38.1376 79.7825 36.5398L79.7165 36.5055C77.394 35.21 75.5763 34.1964 71.502 34.1964C67.4343 34.1964 65.6133 35.21 63.2875 36.502L63.2182 36.5433C60.3415 38.1411 56.927 40.0138 50.5764 40.0138C44.2258 40.0138 40.8114 38.1411 37.9346 36.5433L37.8654 36.502C35.5396 35.21 33.7185 34.1998 29.6508 34.1998C25.5733 34.1998 23.7456 35.2135 21.4099 36.5089L21.3473 36.5433C18.4705 38.1411 15.0561 40.0138 8.72197 40.0138C8.1079 40.0309 7.49676 39.9197 6.92462 39.6868C6.35248 39.4539 5.83095 39.1039 5.3908 38.6576C4.95065 38.2112 4.60082 37.6776 4.36194 37.0881C4.12307 36.4987 4 35.8653 4 35.2255C4 34.5857 4.12307 33.9523 4.36194 33.3629C4.60082 32.7734 4.95065 32.2398 5.3908 31.7934C5.83095 31.3471 6.35248 30.9972 6.92462 30.7642C7.49676 30.5313 8.1079 30.4201 8.72197 30.4373C12.7962 30.4373 14.6272 29.4236 16.9596 28.1248L17.0223 28.0904Z" fill="#44911B"/>
<path d="M89.0591 62.328H12.0274C9.99364 62.3261 8.04371 61.4839 6.60565 59.986C5.16759 58.4882 4.35892 56.4572 4.35718 54.339C4.35892 52.2207 5.16759 50.1897 6.60565 48.6919C8.04371 47.1941 9.99364 46.3518 12.0274 46.35H89.0591C91.0928 46.3518 93.0427 47.1941 94.4808 48.6919C95.9188 50.1897 96.7275 52.2207 96.7292 54.339C96.7275 56.4572 95.9188 58.4882 94.4808 59.986C93.0427 61.4839 91.0928 62.3261 89.0591 62.328Z" fill="#6D4534"/>
<path d="M88.264 43.3536H12.8191V46.3499L36.8556 51.9611C45.8487 54.064 55.2047 54.064 64.1978 51.9611L88.231 46.3499V43.3536H88.264Z" fill="#FCD53F"/>
</g>
<defs>
<filter id="filter0_d_40_471" x="0" y="0" width="101" height="86" filterUnits="userSpaceOnUse" color-interpolation-filters="sRGB">
<feFlood flood-opacity="0" result="BackgroundImageFix"/>
<feColorMatrix in="SourceAlpha" type="matrix" values="0 0 0 0 0 0 0 0 0 0 0 0 0 0 0 0 0 0 127 0" result="hardAlpha"/>
<feOffset dy="4"/>
<feGaussianBlur stdDeviation="2"/>
<feComposite in2="hardAlpha" operator="out"/>
<feColorMatrix type="matrix" values="0 0 0 0 0 0 0 0 0 0 0 0 0 0 0 0 0 0 0.25 0"/>
<feBlend mode="normal" in2="BackgroundImageFix" result="effect1_dropShadow_40_471"/>
<feBlend mode="normal" in="SourceGraphic" in2="effect1_dropShadow_40_471" result="shape"/>
</filter>
</defs>
</svg>
