<svg width="93" height="96" viewBox="0 0 93 96" fill="none" xmlns="http://www.w3.org/2000/svg">
<g clip-path="url(#clip0_40_400)">
<g filter="url(#filter0_d_40_400)">
<path d="M67.1012 30.6977C70.0269 30.6977 72.3986 27.9489 72.3986 24.5581C72.3986 21.1674 70.0269 18.4186 67.1012 18.4186C64.1755 18.4186 61.8037 21.1674 61.8037 24.5581C61.8037 27.9489 64.1755 30.6977 67.1012 30.6977Z" fill="white"/>
</g>
<g filter="url(#filter1_d_40_400)">
<path d="M74.7533 38.5116C77.679 38.5116 80.0507 35.7629 80.0507 32.3721C80.0507 28.9813 77.679 26.2326 74.7533 26.2326C71.8276 26.2326 69.4558 28.9813 69.4558 32.3721C69.4558 35.7629 71.8276 38.5116 74.7533 38.5116Z" fill="white"/>
</g>
<g filter="url(#filter2_d_40_400)">
<path d="M69.4557 48C72.3814 48 74.7531 45.2512 74.7531 41.8605C74.7531 38.4697 72.3814 35.7209 69.4557 35.7209C66.53 35.7209 64.1582 38.4697 64.1582 41.8605C64.1582 45.2512 66.53 48 69.4557 48Z" fill="white"/>
</g>
<g filter="url(#filter3_d_40_400)">
<path d="M60.0379 39.0698C62.9637 39.0698 65.3354 36.321 65.3354 32.9302C65.3354 29.5395 62.9637 26.7907 60.0379 26.7907C57.1122 26.7907 54.7405 29.5395 54.7405 32.9302C54.7405 36.321 57.1122 39.0698 60.0379 39.0698Z" fill="white"/>
</g>
<g filter="url(#filter4_d_40_400)">
<path d="M24.7216 48.5581C32.5235 48.5581 38.8481 41.5613 38.8481 32.9302C38.8481 24.2992 32.5235 17.3023 24.7216 17.3023C16.9197 17.3023 10.595 24.2992 10.595 32.9302C10.595 41.5613 16.9197 48.5581 24.7216 48.5581Z" fill="#2F2F2F"/>
</g>
<g filter="url(#filter5_d_40_400)">
<path d="M33.157 29.8492H27.2471V23.3111C27.2471 23.0737 27.0754 22.8837 26.8536 22.8837H22.575C22.3603 22.8837 22.1886 23.0737 22.1886 23.3111V29.8492H16.2787C16.0641 29.8492 15.8923 30.0391 15.8923 30.2766V35.0178C15.8923 35.2553 16.0641 35.4453 16.2787 35.4453H22.1886V41.9833C22.1886 42.2207 22.3675 42.4186 22.575 42.4186H26.8536C27.0682 42.4186 27.2471 42.2207 27.2471 41.9833V35.4453H33.157C33.3717 35.4453 33.5506 35.2474 33.5506 35.0178V30.2766C33.5506 30.047 33.3717 29.8492 33.157 29.8492Z" fill="white"/>
</g>
<g filter="url(#filter6_d_40_400)">
<path fill-rule="evenodd" clip-rule="evenodd" d="M37.4528 33.1775C37.4528 40.8679 31.8858 47.1024 25.0263 47.1024C18.1594 47.1024 12.5998 40.8679 12.5998 33.1775C12.5998 25.4872 18.1594 19.2526 25.0263 19.2526C31.8858 19.2526 37.4528 25.4872 37.4528 33.1775ZM25.0189 19.2526C18.1521 19.2526 12.5925 25.4872 12.5925 33.1775C12.5925 40.8679 18.1521 47.1024 25.0189 47.1024C31.8858 47.1024 37.4454 40.8679 37.4454 33.1775C37.4528 25.4872 31.8858 19.2526 25.0189 19.2526ZM68.5704 20.5604C68.091 20.5604 67.6164 20.6661 67.1735 20.8715C66.7307 21.077 66.3283 21.3781 65.9894 21.7577C65.6504 22.1373 65.3816 22.5879 65.1981 23.0839C65.0147 23.5798 64.9203 24.1114 64.9203 24.6482C64.9203 25.185 65.0147 25.7166 65.1981 26.2125C65.3816 26.7085 65.6504 27.1591 65.9894 27.5387C66.3283 27.9183 66.7307 28.2194 67.1735 28.4249C67.6164 28.6303 68.091 28.736 68.5704 28.736C69.5384 28.736 70.4669 28.3053 71.1514 27.5387C71.8359 26.7721 72.2205 25.7324 72.2205 24.6482C72.2205 23.564 71.8359 22.5243 71.1514 21.7577C70.4669 20.9911 69.5384 20.5604 68.5704 20.5604ZM57.3043 33.1775C57.3043 33.7143 57.3987 34.2459 57.5821 34.7419C57.7656 35.2378 58.0344 35.6885 58.3734 36.0681C58.7123 36.4476 59.1147 36.7488 59.5576 36.9542C60.0004 37.1596 60.475 37.2653 60.9544 37.2653C61.4337 37.2653 61.9084 37.1596 62.3512 36.9542C62.7941 36.7488 63.1964 36.4476 63.5354 36.0681C63.8743 35.6885 64.1432 35.2378 64.3266 34.7419C64.5101 34.2459 64.6045 33.7143 64.6045 33.1775C64.6045 32.0934 64.2199 31.0536 63.5354 30.287C62.8509 29.5204 61.9224 29.0897 60.9544 29.0897C59.9863 29.0897 59.0579 29.5204 58.3734 30.287C57.6888 31.0536 57.3043 32.0934 57.3043 33.1775ZM68.5704 45.7947C69.0497 45.7947 69.5243 45.6889 69.9672 45.4835C70.41 45.2781 70.8124 44.977 71.1514 44.5974C71.4903 44.2178 71.7592 43.7671 71.9426 43.2712C72.1261 42.7752 72.2205 42.2437 72.2205 41.7068C72.2205 41.17 72.1261 40.6385 71.9426 40.1425C71.7592 39.6465 71.4903 39.1959 71.1514 38.8163C70.8124 38.4367 70.41 38.1356 69.9672 37.9302C69.5243 37.7248 69.0497 37.619 68.5704 37.619C67.6023 37.619 66.6739 38.0497 65.9894 38.8163C65.3048 39.5829 64.9203 40.6227 64.9203 41.7068C64.9203 42.791 65.3048 43.8308 65.9894 44.5974C66.6739 45.364 67.6023 45.7947 68.5704 45.7947ZM79.8365 33.1775C79.8365 32.0934 79.4519 31.0536 78.7674 30.287C78.0828 29.5204 77.1544 29.0897 76.1864 29.0897C75.2183 29.0897 74.2899 29.5204 73.6054 30.287C72.9208 31.0536 72.5363 32.0934 72.5363 33.1775C72.5363 35.4394 74.1667 37.2653 76.1864 37.2653C77.1544 37.2653 78.0828 36.8347 78.7674 36.0681C79.4519 35.3014 79.8365 34.2617 79.8365 33.1775ZM25.0189 19.2526C18.1521 19.2526 12.5925 25.4872 12.5925 33.1775C12.5925 40.8679 18.1521 47.1024 25.0189 47.1024C31.8858 47.1024 37.4454 40.8679 37.4454 33.1775C37.4528 25.4872 31.8858 19.2526 25.0189 19.2526ZM92.8211 63.4702L90.1404 30.9486C89.1269 18.6028 79.8658 8.93024 68.5777 8.93024H25.0263C13.7382 8.93024 4.46971 18.6028 3.4562 30.9486L0.768204 63.4702C0.143942 71.8597 0.915088 78.9661 6.83456 81.4007C11.2264 83.2019 15.7505 81.4007 22.2428 73.8995L34.6766 58.7161H58.898L71.3318 73.8995C77.8241 81.4007 82.3555 83.2019 86.7401 81.4007C92.6669 78.9579 93.4454 71.8597 92.8211 63.4702Z" fill="#107C10"/>
</g>
</g>
<defs>
<filter id="filter0_d_40_400" x="57.8037" y="18.4186" width="18.595" height="20.2791" filterUnits="userSpaceOnUse" color-interpolation-filters="sRGB">
<feFlood flood-opacity="0" result="BackgroundImageFix"/>
<feColorMatrix in="SourceAlpha" type="matrix" values="0 0 0 0 0 0 0 0 0 0 0 0 0 0 0 0 0 0 127 0" result="hardAlpha"/>
<feOffset dy="4"/>
<feGaussianBlur stdDeviation="2"/>
<feComposite in2="hardAlpha" operator="out"/>
<feColorMatrix type="matrix" values="0 0 0 0 0 0 0 0 0 0 0 0 0 0 0 0 0 0 0.25 0"/>
<feBlend mode="normal" in2="BackgroundImageFix" result="effect1_dropShadow_40_400"/>
<feBlend mode="normal" in="SourceGraphic" in2="effect1_dropShadow_40_400" result="shape"/>
</filter>
<filter id="filter1_d_40_400" x="65.4558" y="26.2326" width="18.595" height="20.2791" filterUnits="userSpaceOnUse" color-interpolation-filters="sRGB">
<feFlood flood-opacity="0" result="BackgroundImageFix"/>
<feColorMatrix in="SourceAlpha" type="matrix" values="0 0 0 0 0 0 0 0 0 0 0 0 0 0 0 0 0 0 127 0" result="hardAlpha"/>
<feOffset dy="4"/>
<feGaussianBlur stdDeviation="2"/>
<feComposite in2="hardAlpha" operator="out"/>
<feColorMatrix type="matrix" values="0 0 0 0 0 0 0 0 0 0 0 0 0 0 0 0 0 0 0.25 0"/>
<feBlend mode="normal" in2="BackgroundImageFix" result="effect1_dropShadow_40_400"/>
<feBlend mode="normal" in="SourceGraphic" in2="effect1_dropShadow_40_400" result="shape"/>
</filter>
<filter id="filter2_d_40_400" x="60.1582" y="35.7209" width="18.595" height="20.2791" filterUnits="userSpaceOnUse" color-interpolation-filters="sRGB">
<feFlood flood-opacity="0" result="BackgroundImageFix"/>
<feColorMatrix in="SourceAlpha" type="matrix" values="0 0 0 0 0 0 0 0 0 0 0 0 0 0 0 0 0 0 127 0" result="hardAlpha"/>
<feOffset dy="4"/>
<feGaussianBlur stdDeviation="2"/>
<feComposite in2="hardAlpha" operator="out"/>
<feColorMatrix type="matrix" values="0 0 0 0 0 0 0 0 0 0 0 0 0 0 0 0 0 0 0.25 0"/>
<feBlend mode="normal" in2="BackgroundImageFix" result="effect1_dropShadow_40_400"/>
<feBlend mode="normal" in="SourceGraphic" in2="effect1_dropShadow_40_400" result="shape"/>
</filter>
<filter id="filter3_d_40_400" x="50.7405" y="26.7907" width="18.595" height="20.2791" filterUnits="userSpaceOnUse" color-interpolation-filters="sRGB">
<feFlood flood-opacity="0" result="BackgroundImageFix"/>
<feColorMatrix in="SourceAlpha" type="matrix" values="0 0 0 0 0 0 0 0 0 0 0 0 0 0 0 0 0 0 127 0" result="hardAlpha"/>
<feOffset dy="4"/>
<feGaussianBlur stdDeviation="2"/>
<feComposite in2="hardAlpha" operator="out"/>
<feColorMatrix type="matrix" values="0 0 0 0 0 0 0 0 0 0 0 0 0 0 0 0 0 0 0.25 0"/>
<feBlend mode="normal" in2="BackgroundImageFix" result="effect1_dropShadow_40_400"/>
<feBlend mode="normal" in="SourceGraphic" in2="effect1_dropShadow_40_400" result="shape"/>
</filter>
<filter id="filter4_d_40_400" x="6.59497" y="17.3023" width="36.2532" height="39.2558" filterUnits="userSpaceOnUse" color-interpolation-filters="sRGB">
<feFlood flood-opacity="0" result="BackgroundImageFix"/>
<feColorMatrix in="SourceAlpha" type="matrix" values="0 0 0 0 0 0 0 0 0 0 0 0 0 0 0 0 0 0 127 0" result="hardAlpha"/>
<feOffset dy="4"/>
<feGaussianBlur stdDeviation="2"/>
<feComposite in2="hardAlpha" operator="out"/>
<feColorMatrix type="matrix" values="0 0 0 0 0 0 0 0 0 0 0 0 0 0 0 0 0 0 0.25 0"/>
<feBlend mode="normal" in2="BackgroundImageFix" result="effect1_dropShadow_40_400"/>
<feBlend mode="normal" in="SourceGraphic" in2="effect1_dropShadow_40_400" result="shape"/>
</filter>
<filter id="filter5_d_40_400" x="11.8923" y="22.8837" width="25.6582" height="27.5349" filterUnits="userSpaceOnUse" color-interpolation-filters="sRGB">
<feFlood flood-opacity="0" result="BackgroundImageFix"/>
<feColorMatrix in="SourceAlpha" type="matrix" values="0 0 0 0 0 0 0 0 0 0 0 0 0 0 0 0 0 0 127 0" result="hardAlpha"/>
<feOffset dy="4"/>
<feGaussianBlur stdDeviation="2"/>
<feComposite in2="hardAlpha" operator="out"/>
<feColorMatrix type="matrix" values="0 0 0 0 0 0 0 0 0 0 0 0 0 0 0 0 0 0 0.25 0"/>
<feBlend mode="normal" in2="BackgroundImageFix" result="effect1_dropShadow_40_400"/>
<feBlend mode="normal" in="SourceGraphic" in2="effect1_dropShadow_40_400" result="shape"/>
</filter>
<filter id="filter6_d_40_400" x="-3.41138" y="8.93024" width="100.411" height="81.1163" filterUnits="userSpaceOnUse" color-interpolation-filters="sRGB">
<feFlood flood-opacity="0" result="BackgroundImageFix"/>
<feColorMatrix in="SourceAlpha" type="matrix" values="0 0 0 0 0 0 0 0 0 0 0 0 0 0 0 0 0 0 127 0" result="hardAlpha"/>
<feOffset dy="4"/>
<feGaussianBlur stdDeviation="2"/>
<feComposite in2="hardAlpha" operator="out"/>
<feColorMatrix type="matrix" values="0 0 0 0 0 0 0 0 0 0 0 0 0 0 0 0 0 0 0.25 0"/>
<feBlend mode="normal" in2="BackgroundImageFix" result="effect1_dropShadow_40_400"/>
<feBlend mode="normal" in="SourceGraphic" in2="effect1_dropShadow_40_400" result="shape"/>
</filter>
<clipPath id="clip0_40_400">
<rect width="93" height="96" fill="white"/>
</clipPath>
</defs>
</svg>
