<svg width="93" height="96" viewBox="0 0 93 96" fill="none" xmlns="http://www.w3.org/2000/svg">
<g clip-path="url(#clip0_40_432)">
<g filter="url(#filter0_d_40_432)">
<path d="M61.9999 77.3333L74.9166 64L15.4999 2.66666H2.58325V16L61.9999 77.3333Z" fill="#CCD6DD"/>
</g>
<g filter="url(#filter1_d_40_432)">
<path d="M2.58325 2.66666V16L61.9999 77.3333L68.4582 70.6667L2.58325 2.66666Z" fill="#9AAAB4"/>
</g>
<g filter="url(#filter2_d_40_432)">
<path d="M86.3454 87.488C87.0791 86.7307 87.5286 85.8187 87.7172 84.9067L74.1754 68.3867L72.3644 66.5147C70.9074 65.0107 68.3086 65.2533 66.5571 67.0613L64.9709 68.6933C63.222 70.4987 62.9869 73.1813 64.4439 74.6853L66.3582 76.6613L82.2457 90.5413C83.1369 90.3493 84.023 89.8827 84.7619 89.1227L86.3454 87.488Z" fill="#D99E82"/>
</g>
<g filter="url(#filter3_d_40_432)">
<path d="M86.3452 87.488C87.0789 86.7307 87.5284 85.8187 87.717 84.9067L84.2502 80.6773L82.3462 90.5013C83.2013 90.296 84.0538 89.8533 84.7617 89.12L86.3452 87.488ZM77.7944 72.8053L75.5004 84.648L78.7554 87.4907L80.8737 76.5573L77.7944 72.8053ZM74.1752 68.3867L72.3642 66.5147C72.1175 66.2688 71.8329 66.067 71.5221 65.9173L68.9956 78.9627L72.2506 81.8053L74.7228 69.0507L74.1752 68.3867ZM67.9726 66.0187C67.4473 66.2828 66.9688 66.6362 66.5569 67.064L64.9707 68.6933C64.3479 69.3286 63.8934 70.1182 63.6507 70.9867C63.2838 72.3467 63.5318 73.7467 64.4437 74.6853L65.9834 76.2747L67.9726 66.0187C67.9726 66.016 67.9726 66.016 67.9726 66.0187Z" fill="#BF6952"/>
</g>
<g filter="url(#filter4_d_40_432)">
<path d="M85.8959 96C89.8194 96 93.0001 92.7167 93.0001 88.6666C93.0001 84.6166 89.8194 81.3333 85.8959 81.3333C81.9724 81.3333 78.7917 84.6166 78.7917 88.6666C78.7917 92.7167 81.9724 96 85.8959 96Z" fill="#8A4633"/>
</g>
<g filter="url(#filter5_d_40_432)">
<path d="M76.5338 59.5307C76.782 59.7865 76.9789 60.0904 77.1133 60.4249C77.2477 60.7593 77.3168 61.1179 77.3168 61.48C77.3168 61.8421 77.2477 62.2007 77.1133 62.5351C76.9789 62.8696 76.782 63.1735 76.5338 63.4293L60.7961 79.6747C60.5481 79.9307 60.2537 80.1337 59.9297 80.2723C59.6057 80.4108 59.2584 80.4821 58.9077 80.4821C58.557 80.4821 58.2097 80.4108 57.8857 80.2723C57.5617 80.1337 57.2673 79.9307 57.0193 79.6747C56.7713 79.4187 56.5746 79.1148 56.4403 78.7803C56.3061 78.4458 56.2371 78.0874 56.2371 77.7253C56.2371 77.3633 56.3061 77.0048 56.4403 76.6704C56.5746 76.3359 56.7713 76.032 57.0193 75.776L72.7569 59.5307C73.0048 59.2744 73.2992 59.0711 73.6232 58.9324C73.9472 58.7937 74.2946 58.7224 74.6454 58.7224C74.9961 58.7224 75.3435 58.7937 75.6675 58.9324C75.9916 59.0711 76.2859 59.2744 76.5338 59.5307Z" fill="#FFAC33"/>
</g>
<g filter="url(#filter6_d_40_432)">
<path d="M57.0194 84.3387C59.5162 84.3387 61.5402 82.2493 61.5402 79.672C61.5402 77.0947 59.5162 75.0053 57.0194 75.0053C54.5226 75.0053 52.4985 77.0947 52.4985 79.672C52.4985 82.2493 54.5226 84.3387 57.0194 84.3387Z" fill="#FFAC33"/>
</g>
<g filter="url(#filter7_d_40_432)">
<path d="M76.5338 64.1947C79.0306 64.1947 81.0546 62.1053 81.0546 59.528C81.0546 56.9507 79.0306 54.8613 76.5338 54.8613C74.037 54.8613 72.0129 56.9507 72.0129 59.528C72.0129 62.1053 74.037 64.1947 76.5338 64.1947Z" fill="#FFAC33"/>
</g>
<g filter="url(#filter8_d_40_432)">
<path d="M57.0194 82.3387C58.4461 82.3387 59.6027 81.1448 59.6027 79.672C59.6027 78.1992 58.4461 77.0053 57.0194 77.0053C55.5926 77.0053 54.436 78.1992 54.436 79.672C54.436 81.1448 55.5926 82.3387 57.0194 82.3387Z" fill="#FFCC4D"/>
</g>
<g filter="url(#filter9_d_40_432)">
<path d="M76.5338 62.1947C77.9605 62.1947 79.1171 61.0008 79.1171 59.528C79.1171 58.0552 77.9605 56.8613 76.5338 56.8613C75.107 56.8613 73.9504 58.0552 73.9504 59.528C73.9504 61.0008 75.107 62.1947 76.5338 62.1947Z" fill="#FFCC4D"/>
</g>
<g filter="url(#filter10_d_40_432)">
<path d="M87.5827 78.2453C87.7656 78.434 87.9108 78.6581 88.0098 78.9047C88.1088 79.1514 88.1598 79.4157 88.1598 79.6827C88.1598 79.9496 88.1088 80.214 88.0098 80.4606C87.9108 80.7072 87.7656 80.9313 87.5827 81.12L78.603 90.3867C78.4202 90.5754 78.2031 90.7251 77.9642 90.8273C77.7253 90.9295 77.4692 90.982 77.2106 90.982C76.952 90.982 76.696 90.9295 76.4571 90.8273C76.2181 90.7251 76.0011 90.5754 75.8182 90.3867C75.6354 90.1979 75.4903 89.9738 75.3913 89.7272C75.2924 89.4806 75.2415 89.2163 75.2415 88.9493C75.2415 88.6824 75.2924 88.4181 75.3913 88.1715C75.4903 87.9248 75.6354 87.7008 75.8182 87.512L84.7979 78.2453C84.9807 78.0565 85.1978 77.9067 85.4367 77.8045C85.6756 77.7023 85.9317 77.6497 86.1903 77.6497C86.4489 77.6497 86.705 77.7023 86.9439 77.8045C87.1828 77.9067 87.3999 78.0565 87.5827 78.2453Z" fill="#FFAC33"/>
</g>
<g filter="url(#filter11_d_40_432)">
<path d="M30.9999 77.3333L18.0833 64L77.4999 2.66666H90.4166V16L30.9999 77.3333Z" fill="#CCD6DD"/>
</g>
<g filter="url(#filter12_d_40_432)">
<path d="M90.4167 2.66666V16L31.0001 77.3333L24.5417 70.6667L90.4167 2.66666Z" fill="#9AAAB4"/>
</g>
<g filter="url(#filter13_d_40_432)">
<path d="M6.65471 87.488C5.96563 86.7823 5.4892 85.8858 5.28296 84.9067L18.8248 68.3867L20.6357 66.5147C22.0927 65.0107 24.6915 65.2533 26.443 67.0613L28.0266 68.6933C29.7755 70.4987 30.0106 73.1813 28.5536 74.6853L26.6394 76.6613L10.7519 90.5413C9.79753 90.3306 8.92325 89.8376 8.23571 89.1227L6.65471 87.488Z" fill="#D99E82"/>
</g>
<g filter="url(#filter14_d_40_432)">
<path d="M6.65471 87.488C5.96563 86.7823 5.4892 85.8858 5.28296 84.9067L8.74979 80.6773L10.6537 90.5013C9.73874 90.2845 8.90156 89.8058 8.23829 89.12L6.65471 87.488ZM15.2055 72.8053L17.4995 84.648L14.2445 87.4907L12.1262 76.5573L15.2055 72.8053ZM18.8248 68.3867L20.6357 66.5147C20.8825 66.2688 21.1671 66.067 21.4779 65.9173L24.0044 78.9627L20.7494 81.8053L18.2771 69.0507L18.8248 68.3867ZM25.0274 66.0187C25.5311 66.272 26.0142 66.6187 26.443 67.064L28.0266 68.696C28.6828 69.3733 29.1245 70.1733 29.3467 70.9893C29.7135 72.3493 29.4655 73.7493 28.5536 74.688L27.014 76.2773L25.0274 66.0187C25.0274 66.016 25.0274 66.016 25.0274 66.0187Z" fill="#BF6952"/>
</g>
<path d="M7.10417 96C11.0277 96 14.2083 92.7167 14.2083 88.6666C14.2083 84.6166 11.0277 81.3333 7.10417 81.3333C3.18064 81.3333 0 84.6166 0 88.6666C0 92.7167 3.18064 96 7.10417 96Z" fill="#8A4633"/>
<g filter="url(#filter15_d_40_432)">
<path d="M16.4662 59.5307C16.2179 59.7865 16.021 60.0904 15.8866 60.4249C15.7523 60.7593 15.6831 61.1179 15.6831 61.48C15.6831 61.8421 15.7523 62.2007 15.8866 62.5351C16.021 62.8696 16.2179 63.1735 16.4662 63.4293L32.2038 79.6747C32.4518 79.9307 32.7462 80.1337 33.0702 80.2723C33.3943 80.4108 33.7415 80.4821 34.0922 80.4821C34.443 80.4821 34.7902 80.4108 35.1142 80.2723C35.4383 80.1337 35.7327 79.9307 35.9807 79.6747C36.2287 79.4187 36.4254 79.1148 36.5596 78.7803C36.6938 78.4458 36.7629 78.0874 36.7629 77.7253C36.7629 77.3633 36.6938 77.0048 36.5596 76.6704C36.4254 76.3359 36.2287 76.032 35.9807 75.776L20.243 59.5307C19.9951 59.2744 19.7008 59.0711 19.3767 58.9324C19.0527 58.7937 18.7054 58.7224 18.3546 58.7224C18.0038 58.7224 17.6564 58.7937 17.3324 58.9324C17.0084 59.0711 16.714 59.2744 16.4662 59.5307Z" fill="#FFAC33"/>
</g>
<g filter="url(#filter16_d_40_432)">
<path d="M35.9806 84.3387C38.4773 84.3387 40.5014 82.2493 40.5014 79.672C40.5014 77.0947 38.4773 75.0053 35.9806 75.0053C33.4838 75.0053 31.4597 77.0947 31.4597 79.672C31.4597 82.2493 33.4838 84.3387 35.9806 84.3387Z" fill="#FFAC33"/>
</g>
<g filter="url(#filter17_d_40_432)">
<path d="M16.4661 64.1947C18.9629 64.1947 20.987 62.1053 20.987 59.528C20.987 56.9507 18.9629 54.8613 16.4661 54.8613C13.9694 54.8613 11.9453 56.9507 11.9453 59.528C11.9453 62.1053 13.9694 64.1947 16.4661 64.1947Z" fill="#FFAC33"/>
</g>
<g filter="url(#filter18_d_40_432)">
<path d="M35.9806 82.3387C37.4073 82.3387 38.5639 81.1448 38.5639 79.672C38.5639 78.1992 37.4073 77.0053 35.9806 77.0053C34.5538 77.0053 33.3972 78.1992 33.3972 79.672C33.3972 81.1448 34.5538 82.3387 35.9806 82.3387Z" fill="#FFCC4D"/>
</g>
<g filter="url(#filter19_d_40_432)">
<path d="M16.4661 62.1947C17.8929 62.1947 19.0495 61.0008 19.0495 59.528C19.0495 58.0552 17.8929 56.8613 16.4661 56.8613C15.0394 56.8613 13.8828 58.0552 13.8828 59.528C13.8828 61.0008 15.0394 62.1947 16.4661 62.1947Z" fill="#FFCC4D"/>
</g>
<g filter="url(#filter20_d_40_432)">
<path d="M5.41737 78.2453C5.23443 78.434 5.08932 78.6581 4.9903 78.9047C4.89129 79.1514 4.84033 79.4157 4.84033 79.6827C4.84033 79.9496 4.89129 80.214 4.9903 80.4606C5.08932 80.7072 5.23443 80.9313 5.41737 81.12L14.397 90.3867C14.5799 90.5754 14.797 90.7251 15.0359 90.8273C15.2748 90.9295 15.5309 90.982 15.7895 90.982C16.048 90.982 16.3041 90.9295 16.543 90.8273C16.7819 90.7251 16.999 90.5754 17.1819 90.3867C17.3647 90.1979 17.5098 89.9738 17.6087 89.7272C17.7077 89.4806 17.7586 89.2163 17.7586 88.9493C17.7586 88.6824 17.7077 88.4181 17.6087 88.1715C17.5098 87.9248 17.3647 87.7008 17.1819 87.512L8.2022 78.2453C8.01939 78.0565 7.80233 77.9067 7.56341 77.8045C7.32449 77.7023 7.06841 77.6497 6.80979 77.6497C6.55117 77.6497 6.29508 77.7023 6.05616 77.8045C5.81724 77.9067 5.60018 78.0565 5.41737 78.2453Z" fill="#FFAC33"/>
</g>
</g>
<defs>
<filter id="filter0_d_40_432" x="-1.41675" y="2.66666" width="80.3333" height="82.6667" filterUnits="userSpaceOnUse" color-interpolation-filters="sRGB">
<feFlood flood-opacity="0" result="BackgroundImageFix"/>
<feColorMatrix in="SourceAlpha" type="matrix" values="0 0 0 0 0 0 0 0 0 0 0 0 0 0 0 0 0 0 127 0" result="hardAlpha"/>
<feOffset dy="4"/>
<feGaussianBlur stdDeviation="2"/>
<feComposite in2="hardAlpha" operator="out"/>
<feColorMatrix type="matrix" values="0 0 0 0 0 0 0 0 0 0 0 0 0 0 0 0 0 0 0.25 0"/>
<feBlend mode="normal" in2="BackgroundImageFix" result="effect1_dropShadow_40_432"/>
<feBlend mode="normal" in="SourceGraphic" in2="effect1_dropShadow_40_432" result="shape"/>
</filter>
<filter id="filter1_d_40_432" x="-1.41675" y="2.66666" width="73.875" height="82.6667" filterUnits="userSpaceOnUse" color-interpolation-filters="sRGB">
<feFlood flood-opacity="0" result="BackgroundImageFix"/>
<feColorMatrix in="SourceAlpha" type="matrix" values="0 0 0 0 0 0 0 0 0 0 0 0 0 0 0 0 0 0 127 0" result="hardAlpha"/>
<feOffset dy="4"/>
<feGaussianBlur stdDeviation="2"/>
<feComposite in2="hardAlpha" operator="out"/>
<feColorMatrix type="matrix" values="0 0 0 0 0 0 0 0 0 0 0 0 0 0 0 0 0 0 0.25 0"/>
<feBlend mode="normal" in2="BackgroundImageFix" result="effect1_dropShadow_40_432"/>
<feBlend mode="normal" in="SourceGraphic" in2="effect1_dropShadow_40_432" result="shape"/>
</filter>
<filter id="filter2_d_40_432" x="59.4883" y="65.5284" width="32.229" height="33.0129" filterUnits="userSpaceOnUse" color-interpolation-filters="sRGB">
<feFlood flood-opacity="0" result="BackgroundImageFix"/>
<feColorMatrix in="SourceAlpha" type="matrix" values="0 0 0 0 0 0 0 0 0 0 0 0 0 0 0 0 0 0 127 0" result="hardAlpha"/>
<feOffset dy="4"/>
<feGaussianBlur stdDeviation="2"/>
<feComposite in2="hardAlpha" operator="out"/>
<feColorMatrix type="matrix" values="0 0 0 0 0 0 0 0 0 0 0 0 0 0 0 0 0 0 0.25 0"/>
<feBlend mode="normal" in2="BackgroundImageFix" result="effect1_dropShadow_40_432"/>
<feBlend mode="normal" in="SourceGraphic" in2="effect1_dropShadow_40_432" result="shape"/>
</filter>
<filter id="filter3_d_40_432" x="59.4878" y="65.9173" width="32.2292" height="32.584" filterUnits="userSpaceOnUse" color-interpolation-filters="sRGB">
<feFlood flood-opacity="0" result="BackgroundImageFix"/>
<feColorMatrix in="SourceAlpha" type="matrix" values="0 0 0 0 0 0 0 0 0 0 0 0 0 0 0 0 0 0 127 0" result="hardAlpha"/>
<feOffset dy="4"/>
<feGaussianBlur stdDeviation="2"/>
<feComposite in2="hardAlpha" operator="out"/>
<feColorMatrix type="matrix" values="0 0 0 0 0 0 0 0 0 0 0 0 0 0 0 0 0 0 0.25 0"/>
<feBlend mode="normal" in2="BackgroundImageFix" result="effect1_dropShadow_40_432"/>
<feBlend mode="normal" in="SourceGraphic" in2="effect1_dropShadow_40_432" result="shape"/>
</filter>
<filter id="filter4_d_40_432" x="74.7917" y="81.3333" width="22.2083" height="22.6667" filterUnits="userSpaceOnUse" color-interpolation-filters="sRGB">
<feFlood flood-opacity="0" result="BackgroundImageFix"/>
<feColorMatrix in="SourceAlpha" type="matrix" values="0 0 0 0 0 0 0 0 0 0 0 0 0 0 0 0 0 0 127 0" result="hardAlpha"/>
<feOffset dy="4"/>
<feGaussianBlur stdDeviation="2"/>
<feComposite in2="hardAlpha" operator="out"/>
<feColorMatrix type="matrix" values="0 0 0 0 0 0 0 0 0 0 0 0 0 0 0 0 0 0 0.25 0"/>
<feBlend mode="normal" in2="BackgroundImageFix" result="effect1_dropShadow_40_432"/>
<feBlend mode="normal" in="SourceGraphic" in2="effect1_dropShadow_40_432" result="shape"/>
</filter>
<filter id="filter5_d_40_432" x="52.2371" y="58.7224" width="29.0798" height="29.7598" filterUnits="userSpaceOnUse" color-interpolation-filters="sRGB">
<feFlood flood-opacity="0" result="BackgroundImageFix"/>
<feColorMatrix in="SourceAlpha" type="matrix" values="0 0 0 0 0 0 0 0 0 0 0 0 0 0 0 0 0 0 127 0" result="hardAlpha"/>
<feOffset dy="4"/>
<feGaussianBlur stdDeviation="2"/>
<feComposite in2="hardAlpha" operator="out"/>
<feColorMatrix type="matrix" values="0 0 0 0 0 0 0 0 0 0 0 0 0 0 0 0 0 0 0.25 0"/>
<feBlend mode="normal" in2="BackgroundImageFix" result="effect1_dropShadow_40_432"/>
<feBlend mode="normal" in="SourceGraphic" in2="effect1_dropShadow_40_432" result="shape"/>
</filter>
<filter id="filter6_d_40_432" x="48.4985" y="75.0053" width="17.0417" height="17.3333" filterUnits="userSpaceOnUse" color-interpolation-filters="sRGB">
<feFlood flood-opacity="0" result="BackgroundImageFix"/>
<feColorMatrix in="SourceAlpha" type="matrix" values="0 0 0 0 0 0 0 0 0 0 0 0 0 0 0 0 0 0 127 0" result="hardAlpha"/>
<feOffset dy="4"/>
<feGaussianBlur stdDeviation="2"/>
<feComposite in2="hardAlpha" operator="out"/>
<feColorMatrix type="matrix" values="0 0 0 0 0 0 0 0 0 0 0 0 0 0 0 0 0 0 0.25 0"/>
<feBlend mode="normal" in2="BackgroundImageFix" result="effect1_dropShadow_40_432"/>
<feBlend mode="normal" in="SourceGraphic" in2="effect1_dropShadow_40_432" result="shape"/>
</filter>
<filter id="filter7_d_40_432" x="68.0129" y="54.8613" width="17.0417" height="17.3333" filterUnits="userSpaceOnUse" color-interpolation-filters="sRGB">
<feFlood flood-opacity="0" result="BackgroundImageFix"/>
<feColorMatrix in="SourceAlpha" type="matrix" values="0 0 0 0 0 0 0 0 0 0 0 0 0 0 0 0 0 0 127 0" result="hardAlpha"/>
<feOffset dy="4"/>
<feGaussianBlur stdDeviation="2"/>
<feComposite in2="hardAlpha" operator="out"/>
<feColorMatrix type="matrix" values="0 0 0 0 0 0 0 0 0 0 0 0 0 0 0 0 0 0 0.25 0"/>
<feBlend mode="normal" in2="BackgroundImageFix" result="effect1_dropShadow_40_432"/>
<feBlend mode="normal" in="SourceGraphic" in2="effect1_dropShadow_40_432" result="shape"/>
</filter>
<filter id="filter8_d_40_432" x="50.436" y="77.0053" width="13.1667" height="13.3333" filterUnits="userSpaceOnUse" color-interpolation-filters="sRGB">
<feFlood flood-opacity="0" result="BackgroundImageFix"/>
<feColorMatrix in="SourceAlpha" type="matrix" values="0 0 0 0 0 0 0 0 0 0 0 0 0 0 0 0 0 0 127 0" result="hardAlpha"/>
<feOffset dy="4"/>
<feGaussianBlur stdDeviation="2"/>
<feComposite in2="hardAlpha" operator="out"/>
<feColorMatrix type="matrix" values="0 0 0 0 0 0 0 0 0 0 0 0 0 0 0 0 0 0 0.25 0"/>
<feBlend mode="normal" in2="BackgroundImageFix" result="effect1_dropShadow_40_432"/>
<feBlend mode="normal" in="SourceGraphic" in2="effect1_dropShadow_40_432" result="shape"/>
</filter>
<filter id="filter9_d_40_432" x="69.9504" y="56.8613" width="13.1667" height="13.3333" filterUnits="userSpaceOnUse" color-interpolation-filters="sRGB">
<feFlood flood-opacity="0" result="BackgroundImageFix"/>
<feColorMatrix in="SourceAlpha" type="matrix" values="0 0 0 0 0 0 0 0 0 0 0 0 0 0 0 0 0 0 127 0" result="hardAlpha"/>
<feOffset dy="4"/>
<feGaussianBlur stdDeviation="2"/>
<feComposite in2="hardAlpha" operator="out"/>
<feColorMatrix type="matrix" values="0 0 0 0 0 0 0 0 0 0 0 0 0 0 0 0 0 0 0.25 0"/>
<feBlend mode="normal" in2="BackgroundImageFix" result="effect1_dropShadow_40_432"/>
<feBlend mode="normal" in="SourceGraphic" in2="effect1_dropShadow_40_432" result="shape"/>
</filter>
<filter id="filter10_d_40_432" x="71.2415" y="77.6497" width="20.9182" height="21.3323" filterUnits="userSpaceOnUse" color-interpolation-filters="sRGB">
<feFlood flood-opacity="0" result="BackgroundImageFix"/>
<feColorMatrix in="SourceAlpha" type="matrix" values="0 0 0 0 0 0 0 0 0 0 0 0 0 0 0 0 0 0 127 0" result="hardAlpha"/>
<feOffset dy="4"/>
<feGaussianBlur stdDeviation="2"/>
<feComposite in2="hardAlpha" operator="out"/>
<feColorMatrix type="matrix" values="0 0 0 0 0 0 0 0 0 0 0 0 0 0 0 0 0 0 0.25 0"/>
<feBlend mode="normal" in2="BackgroundImageFix" result="effect1_dropShadow_40_432"/>
<feBlend mode="normal" in="SourceGraphic" in2="effect1_dropShadow_40_432" result="shape"/>
</filter>
<filter id="filter11_d_40_432" x="14.0833" y="2.66666" width="80.3333" height="82.6667" filterUnits="userSpaceOnUse" color-interpolation-filters="sRGB">
<feFlood flood-opacity="0" result="BackgroundImageFix"/>
<feColorMatrix in="SourceAlpha" type="matrix" values="0 0 0 0 0 0 0 0 0 0 0 0 0 0 0 0 0 0 127 0" result="hardAlpha"/>
<feOffset dy="4"/>
<feGaussianBlur stdDeviation="2"/>
<feComposite in2="hardAlpha" operator="out"/>
<feColorMatrix type="matrix" values="0 0 0 0 0 0 0 0 0 0 0 0 0 0 0 0 0 0 0.25 0"/>
<feBlend mode="normal" in2="BackgroundImageFix" result="effect1_dropShadow_40_432"/>
<feBlend mode="normal" in="SourceGraphic" in2="effect1_dropShadow_40_432" result="shape"/>
</filter>
<filter id="filter12_d_40_432" x="20.5417" y="2.66666" width="73.875" height="82.6667" filterUnits="userSpaceOnUse" color-interpolation-filters="sRGB">
<feFlood flood-opacity="0" result="BackgroundImageFix"/>
<feColorMatrix in="SourceAlpha" type="matrix" values="0 0 0 0 0 0 0 0 0 0 0 0 0 0 0 0 0 0 127 0" result="hardAlpha"/>
<feOffset dy="4"/>
<feGaussianBlur stdDeviation="2"/>
<feComposite in2="hardAlpha" operator="out"/>
<feColorMatrix type="matrix" values="0 0 0 0 0 0 0 0 0 0 0 0 0 0 0 0 0 0 0.25 0"/>
<feBlend mode="normal" in2="BackgroundImageFix" result="effect1_dropShadow_40_432"/>
<feBlend mode="normal" in="SourceGraphic" in2="effect1_dropShadow_40_432" result="shape"/>
</filter>
<filter id="filter13_d_40_432" x="1.28296" y="65.5284" width="32.2263" height="33.0129" filterUnits="userSpaceOnUse" color-interpolation-filters="sRGB">
<feFlood flood-opacity="0" result="BackgroundImageFix"/>
<feColorMatrix in="SourceAlpha" type="matrix" values="0 0 0 0 0 0 0 0 0 0 0 0 0 0 0 0 0 0 127 0" result="hardAlpha"/>
<feOffset dy="4"/>
<feGaussianBlur stdDeviation="2"/>
<feComposite in2="hardAlpha" operator="out"/>
<feColorMatrix type="matrix" values="0 0 0 0 0 0 0 0 0 0 0 0 0 0 0 0 0 0 0.25 0"/>
<feBlend mode="normal" in2="BackgroundImageFix" result="effect1_dropShadow_40_432"/>
<feBlend mode="normal" in="SourceGraphic" in2="effect1_dropShadow_40_432" result="shape"/>
</filter>
<filter id="filter14_d_40_432" x="1.28296" y="65.9173" width="32.2266" height="32.584" filterUnits="userSpaceOnUse" color-interpolation-filters="sRGB">
<feFlood flood-opacity="0" result="BackgroundImageFix"/>
<feColorMatrix in="SourceAlpha" type="matrix" values="0 0 0 0 0 0 0 0 0 0 0 0 0 0 0 0 0 0 127 0" result="hardAlpha"/>
<feOffset dy="4"/>
<feGaussianBlur stdDeviation="2"/>
<feComposite in2="hardAlpha" operator="out"/>
<feColorMatrix type="matrix" values="0 0 0 0 0 0 0 0 0 0 0 0 0 0 0 0 0 0 0.25 0"/>
<feBlend mode="normal" in2="BackgroundImageFix" result="effect1_dropShadow_40_432"/>
<feBlend mode="normal" in="SourceGraphic" in2="effect1_dropShadow_40_432" result="shape"/>
</filter>
<filter id="filter15_d_40_432" x="11.6831" y="58.7224" width="29.0798" height="29.7598" filterUnits="userSpaceOnUse" color-interpolation-filters="sRGB">
<feFlood flood-opacity="0" result="BackgroundImageFix"/>
<feColorMatrix in="SourceAlpha" type="matrix" values="0 0 0 0 0 0 0 0 0 0 0 0 0 0 0 0 0 0 127 0" result="hardAlpha"/>
<feOffset dy="4"/>
<feGaussianBlur stdDeviation="2"/>
<feComposite in2="hardAlpha" operator="out"/>
<feColorMatrix type="matrix" values="0 0 0 0 0 0 0 0 0 0 0 0 0 0 0 0 0 0 0.25 0"/>
<feBlend mode="normal" in2="BackgroundImageFix" result="effect1_dropShadow_40_432"/>
<feBlend mode="normal" in="SourceGraphic" in2="effect1_dropShadow_40_432" result="shape"/>
</filter>
<filter id="filter16_d_40_432" x="27.4597" y="75.0053" width="17.0417" height="17.3333" filterUnits="userSpaceOnUse" color-interpolation-filters="sRGB">
<feFlood flood-opacity="0" result="BackgroundImageFix"/>
<feColorMatrix in="SourceAlpha" type="matrix" values="0 0 0 0 0 0 0 0 0 0 0 0 0 0 0 0 0 0 127 0" result="hardAlpha"/>
<feOffset dy="4"/>
<feGaussianBlur stdDeviation="2"/>
<feComposite in2="hardAlpha" operator="out"/>
<feColorMatrix type="matrix" values="0 0 0 0 0 0 0 0 0 0 0 0 0 0 0 0 0 0 0.25 0"/>
<feBlend mode="normal" in2="BackgroundImageFix" result="effect1_dropShadow_40_432"/>
<feBlend mode="normal" in="SourceGraphic" in2="effect1_dropShadow_40_432" result="shape"/>
</filter>
<filter id="filter17_d_40_432" x="7.94531" y="54.8613" width="17.0417" height="17.3333" filterUnits="userSpaceOnUse" color-interpolation-filters="sRGB">
<feFlood flood-opacity="0" result="BackgroundImageFix"/>
<feColorMatrix in="SourceAlpha" type="matrix" values="0 0 0 0 0 0 0 0 0 0 0 0 0 0 0 0 0 0 127 0" result="hardAlpha"/>
<feOffset dy="4"/>
<feGaussianBlur stdDeviation="2"/>
<feComposite in2="hardAlpha" operator="out"/>
<feColorMatrix type="matrix" values="0 0 0 0 0 0 0 0 0 0 0 0 0 0 0 0 0 0 0.25 0"/>
<feBlend mode="normal" in2="BackgroundImageFix" result="effect1_dropShadow_40_432"/>
<feBlend mode="normal" in="SourceGraphic" in2="effect1_dropShadow_40_432" result="shape"/>
</filter>
<filter id="filter18_d_40_432" x="29.3972" y="77.0053" width="13.1667" height="13.3333" filterUnits="userSpaceOnUse" color-interpolation-filters="sRGB">
<feFlood flood-opacity="0" result="BackgroundImageFix"/>
<feColorMatrix in="SourceAlpha" type="matrix" values="0 0 0 0 0 0 0 0 0 0 0 0 0 0 0 0 0 0 127 0" result="hardAlpha"/>
<feOffset dy="4"/>
<feGaussianBlur stdDeviation="2"/>
<feComposite in2="hardAlpha" operator="out"/>
<feColorMatrix type="matrix" values="0 0 0 0 0 0 0 0 0 0 0 0 0 0 0 0 0 0 0.25 0"/>
<feBlend mode="normal" in2="BackgroundImageFix" result="effect1_dropShadow_40_432"/>
<feBlend mode="normal" in="SourceGraphic" in2="effect1_dropShadow_40_432" result="shape"/>
</filter>
<filter id="filter19_d_40_432" x="9.88281" y="56.8613" width="13.1667" height="13.3333" filterUnits="userSpaceOnUse" color-interpolation-filters="sRGB">
<feFlood flood-opacity="0" result="BackgroundImageFix"/>
<feColorMatrix in="SourceAlpha" type="matrix" values="0 0 0 0 0 0 0 0 0 0 0 0 0 0 0 0 0 0 127 0" result="hardAlpha"/>
<feOffset dy="4"/>
<feGaussianBlur stdDeviation="2"/>
<feComposite in2="hardAlpha" operator="out"/>
<feColorMatrix type="matrix" values="0 0 0 0 0 0 0 0 0 0 0 0 0 0 0 0 0 0 0.25 0"/>
<feBlend mode="normal" in2="BackgroundImageFix" result="effect1_dropShadow_40_432"/>
<feBlend mode="normal" in="SourceGraphic" in2="effect1_dropShadow_40_432" result="shape"/>
</filter>
<filter id="filter20_d_40_432" x="0.840332" y="77.6497" width="20.9182" height="21.3323" filterUnits="userSpaceOnUse" color-interpolation-filters="sRGB">
<feFlood flood-opacity="0" result="BackgroundImageFix"/>
<feColorMatrix in="SourceAlpha" type="matrix" values="0 0 0 0 0 0 0 0 0 0 0 0 0 0 0 0 0 0 127 0" result="hardAlpha"/>
<feOffset dy="4"/>
<feGaussianBlur stdDeviation="2"/>
<feComposite in2="hardAlpha" operator="out"/>
<feColorMatrix type="matrix" values="0 0 0 0 0 0 0 0 0 0 0 0 0 0 0 0 0 0 0.25 0"/>
<feBlend mode="normal" in2="BackgroundImageFix" result="effect1_dropShadow_40_432"/>
<feBlend mode="normal" in="SourceGraphic" in2="effect1_dropShadow_40_432" result="shape"/>
</filter>
<clipPath id="clip0_40_432">
<rect width="93" height="96" fill="white"/>
</clipPath>
</defs>
</svg>
