<svg width="44" height="40" viewBox="0 0 44 40" fill="none" xmlns="http://www.w3.org/2000/svg">
<g clip-path="url(#clip0_146_2989)">
<path d="M44 30C44 31.1787 43.4849 32.3092 42.5681 33.1427C41.6512 33.9762 40.4077 34.4444 39.1111 34.4444H4.88889C3.59227 34.4444 2.34877 33.9762 1.43192 33.1427C0.515078 32.3092 0 31.1787 0 30V9.99999C0 8.82125 0.515078 7.69078 1.43192 6.85729C2.34877 6.02379 3.59227 5.55554 4.88889 5.55554H39.1111C40.4077 5.55554 41.6512 6.02379 42.5681 6.85729C43.4849 7.69078 44 8.82125 44 9.99999V30Z" fill="#009B3A"/>
<path d="M40.0008 20L21.9999 32.36L3.99902 20L21.9999 7.63892L40.0008 20Z" fill="#FEDF01"/>
<path d="M21.9707 27.0911C26.33 27.0911 29.8639 23.8785 29.8639 19.9155C29.8639 15.9526 26.33 12.74 21.9707 12.74C17.6115 12.74 14.0776 15.9526 14.0776 19.9155C14.0776 23.8785 17.6115 27.0911 21.9707 27.0911Z" fill="#002776"/>
<path d="M15.0054 16.5411C14.5955 17.2434 14.3178 18.0032 14.1841 18.7889C19.0669 18.4667 25.6938 20.89 28.5379 23.8945C29.0292 23.2234 29.3934 22.4722 29.6171 21.6678C26.1069 18.5478 19.9407 16.5234 15.0054 16.5411Z" fill="#CBE9D4"/>
<path d="M14.6665 20.2589H15.8887V21.37H14.6665V20.2589ZM15.8887 22.4811H17.1109V23.5922H15.8887V22.4811Z" fill="#88C9F9"/>
<path d="M18.3335 20.2588H19.5557V21.37H18.3335V20.2588ZM20.7779 21.37H22.0002V22.4811H20.7779V21.37ZM25.6668 23.5922H26.8891V24.7033H25.6668V23.5922ZM22.0002 24.7033H23.2224V25.8144H22.0002V24.7033ZM25.6668 18.0366H26.8891V19.1477H25.6668V18.0366Z" fill="#55ACEE"/>
<path d="M23.2222 22.4812H24.4444V23.5923H23.2222V22.4812Z" fill="#3B88C3"/>
</g>
<defs>
<clipPath id="clip0_146_2989">
<rect width="44" height="40" fill="white"/>
</clipPath>
</defs>
</svg>
