<svg width="41" height="40" viewBox="0 0 41 40" fill="none" xmlns="http://www.w3.org/2000/svg">
<g clip-path="url(#clip0_146_2988)">
<path d="M41 30C41 31.1787 40.52 32.3092 39.6657 33.1427C38.8114 33.9762 37.6527 34.4444 36.4444 34.4444H4.55556C3.34735 34.4444 2.18862 33.9762 1.33429 33.1427C0.479959 32.3092 0 31.1787 0 30V9.99999C0 8.82125 0.479959 7.69078 1.33429 6.85729C2.18862 6.02379 3.34735 5.55554 4.55556 5.55554H36.4444C37.6527 5.55554 38.8114 6.02379 39.6657 6.85729C40.52 7.69078 41 8.82125 41 9.99999V30Z" fill="#C60A1D"/>
<path d="M0 13.3334H41V26.6667H0V13.3334Z" fill="#FFC400"/>
<path d="M10.25 18.8889V22.2222C10.25 23.1063 10.61 23.9542 11.2507 24.5793C11.8915 25.2044 12.7605 25.5556 13.6667 25.5556C14.5728 25.5556 15.4419 25.2044 16.0826 24.5793C16.7234 23.9542 17.0833 23.1063 17.0833 22.2222V18.8889H10.25Z" fill="#EA596E"/>
<path d="M13.6665 17.7778H17.0832V21.1112H13.6665V17.7778Z" fill="#F4A2B2"/>
<path d="M10.25 17.7778H13.6667V21.1112H10.25V17.7778Z" fill="#DD2E44"/>
<path d="M13.6667 17.7778C15.5536 17.7778 17.0833 17.0316 17.0833 16.1111C17.0833 15.1906 15.5536 14.4445 13.6667 14.4445C11.7797 14.4445 10.25 15.1906 10.25 16.1111C10.25 17.0316 11.7797 17.7778 13.6667 17.7778Z" fill="#EA596E"/>
<path d="M13.6667 16.1111C15.5536 16.1111 17.0833 15.738 17.0833 15.2778C17.0833 14.8176 15.5536 14.4445 13.6667 14.4445C11.7797 14.4445 10.25 14.8176 10.25 15.2778C10.25 15.738 11.7797 16.1111 13.6667 16.1111Z" fill="#FFAC33"/>
<path d="M7.97217 17.7778H9.11106V25.5556H7.97217V17.7778ZM18.2222 17.7778H19.3611V25.5556H18.2222V17.7778Z" fill="#99AAB5"/>
<path d="M6.8335 24.4444H10.2502V25.5555H6.8335V24.4444ZM17.0835 24.4444H20.5002V25.5555H17.0835V24.4444ZM7.97238 16.6666H9.11127V17.7777H7.97238V16.6666ZM18.2224 16.6666H19.3613V17.7777H18.2224V16.6666Z" fill="#66757F"/>
</g>
<defs>
<clipPath id="clip0_146_2988">
<rect width="41" height="40" fill="white"/>
</clipPath>
</defs>
</svg>
